  0
SECTION
  2
HEADER
  9
$ACADVER
  1
AC1014
  9
$HANDSEED
  5
FFFF
  9
$INSUNITS
 70
     0
  9
$MEASUREMENT
 70
     1
  0
ENDSEC
  0
SECTION
  2
TABLES
  0
TABLE
  2
VPORT
  5
8
330
0
100
AcDbSymbolTable
 70
     4
  0
VPORT
  5
2E
330
8
100
AcDbSymbolTableRecord
100
AcDbViewportTableRecord
  2
*ACTIVE
 70
     0
 10
0.0
 20
0.0
 11
1.0
 21
1.0
 12
210.0
 22
148.5
 13
0.0
 23
0.0
 14
10.0
 24
10.0
 15
10.0
 25
10.0
 16
0.0
 26
0.0
 36
1.0
 17
0.0
 27
0.0
 37
0.0
 40
341.0
 41
1.24
 42
50.0
 43
0.0
 44
0.0
 50
0.0
 51
0.0
 71
     0
 72
   100
 73
     1
 74
     3
 75
     0
 76
     0
 77
     0
 78
     0
  0
ENDTAB
  0
TABLE
  2
LTYPE
  5
5
330
0
100
AcDbSymbolTable
 70
     1
  0
LTYPE
  5
14
330
5
100
AcDbSymbolTableRecord
100
AcDbLinetypeTableRecord
  2
BYBLOCK
 70
     0
  3

 72
    65
 73
     0
 40
0.0
  0
LTYPE
  5
15
330
5
100
AcDbSymbolTableRecord
100
AcDbLinetypeTableRecord
  2
BYLAYER
 70
     0
  3

 72
    65
 73
     0
 40
0.0
  0
LTYPE
  5
16
330
5
100
AcDbSymbolTableRecord
100
AcDbLinetypeTableRecord
  2
CONTINUOUS
 70
     0
  3
Solid line
 72
    65
 73
     0
 40
0.0
  0
ENDTAB
  0
TABLE
  2
LAYER
  5
2
100
AcDbSymbolTable
 70
1
  0
LAYER
  5
50
100
AcDbSymbolTableRecord
100
AcDbLayerTableRecord
  2
0
 70
0
  6
CONTINUOUS
  0
ENDTAB
  0
TABLE
  2
STYLE
  5
3
330
0
100
AcDbSymbolTable
 70
     1
  0
STYLE
  5
11
330
3
100
AcDbSymbolTableRecord
100
AcDbTextStyleTableRecord
  2
STANDARD
 70
     0
 40
0.0
 41
1.0
 50
0.0
 71
     0
 42
2.5
  3
txt
  4

  0
ENDTAB
  0
TABLE
  2
VIEW
  5
6
330
0
100
AcDbSymbolTable
 70
     0
  0
ENDTAB
  0
TABLE
  2
UCS
  5
7
330
0
100
AcDbSymbolTable
 70
     0
  0
ENDTAB
  0
TABLE
  2
APPID
  5
9
330
0
100
AcDbSymbolTable
 70
     2
  0
APPID
  5
12
330
9
100
AcDbSymbolTableRecord
100
AcDbRegAppTableRecord
  2
ACAD
 70
     0
  0
ENDTAB
  0
TABLE
  2
DIMSTYLE
  5
A
330
0
100
AcDbSymbolTable
 70
     1
  0
DIMSTYLE
105
27
330
A
100
AcDbSymbolTableRecord
100
AcDbDimStyleTableRecord
  2
ISO-25
 70
     0
  3

  4

  5

  6

  7

 40
1.0
 41
2.5
 42
0.625
 43
3.75
 44
1.25
 45
0.0
 46
0.0
 47
0.0
 48
0.0
140
2.5
141
2.5
142
0.0
143
0.03937007874016
144
1.0
145
0.0
146
1.0
147
0.625
 71
     0
 72
     0
 73
     0
 74
     0
 75
     0
 76
     0
 77
     1
 78
     8
170
     0
171
     3
172
     1
173
     0
174
     0
175
     0
176
     0
177
     0
178
     0
270
     2
271
     2
272
     2
273
     2
274
     3
340
11
275
     0
280
     0
281
     0
282
     0
283
     0
284
     8
285
     0
286
     0
287
     3
288
     0
  0
ENDTAB
  0
TABLE
  2
BLOCK_RECORD
  5
1
330
0
100
AcDbSymbolTable
 70
     1
  0
BLOCK_RECORD
  5
1F
330
1
100
AcDbSymbolTableRecord
100
AcDbBlockTableRecord
  2
*MODEL_SPACE
  0
BLOCK_RECORD
  5
1B
330
1
100
AcDbSymbolTableRecord
100
AcDbBlockTableRecord
  2
*PAPER_SPACE
  0
ENDTAB
  0
ENDSEC
  0
SECTION
  2
BLOCKS
  0
BLOCK
  5
20
330
1F
100
AcDbEntity
  8
0
100
AcDbBlockBegin
  2
*MODEL_SPACE
 70
     0
 10
0.0
 20
0.0
 30
0.0
  3
*MODEL_SPACE
  1

  0
ENDBLK
  5
21
330
1F
100
AcDbEntity
  8
0
100
AcDbBlockEnd
  0
BLOCK
  5
1C
330
1B
100
AcDbEntity
 67
     1
  8
0
100
AcDbBlockBegin
  2
*PAPER_SPACE
  1

  0
ENDBLK
  5
1D
330
1B
100
AcDbEntity
 67
     1
  8
0
100
AcDbBlockEnd
  0
ENDSEC
  0
SECTION
  2
ENTITIES
  0
SPLINE
  5
100
100
AcDbEntity
  8
0
 62
7
100
AcDbSpline
 70
8
 71
3
 72
8
 73
4
 74
0
 40
0
 40
0
 40
0
 40
0
 40
1
 40
1
 40
1
 40
1
 10
45.032294
 20
30.282878
 30
0.0
 10
44.869693
 20
30.607159
 30
0.0
 10
44.579672
 20
30.835983
 30
0.0
 10
44.239859
 20
30.922303
 30
0.0
  0
SPLINE
  5
101
100
AcDbEntity
  8
0
 62
7
100
AcDbSpline
 70
8
 71
3
 72
8
 73
4
 74
0
 40
0
 40
0
 40
0
 40
0
 40
1
 40
1
 40
1
 40
1
 10
44.239859
 20
30.922303
 30
0.0
 10
44.220676
 20
30.981677
 30
0.0
 10
44.196470
 20
31.039683
 30
0.0
 10
44.168148
 20
31.096318
 30
0.0
  0
SPLINE
  5
102
100
AcDbEntity
  8
0
 62
7
100
AcDbSpline
 70
8
 71
3
 72
8
 73
4
 74
0
 40
0
 40
0
 40
0
 40
0
 40
1
 40
1
 40
1
 40
1
 10
44.168148
 20
31.096318
 30
0.0
 10
44.003273
 20
31.424251
 30
0.0
 10
43.708226
 20
31.654903
 30
0.0
 10
43.362934
 20
31.738940
 30
0.0
  0
SPLINE
  5
103
100
AcDbEntity
  8
0
 62
7
100
AcDbSpline
 70
8
 71
3
 72
8
 73
4
 74
0
 40
0
 40
0
 40
0
 40
0
 40
1
 40
1
 40
1
 40
1
 10
43.362934
 20
31.738940
 30
0.0
 10
43.349687
 20
31.787354
 30
0.0
 10
43.333251
 20
31.834856
 30
0.0
 10
43.314060
 20
31.881897
 30
0.0
  0
SPLINE
  5
104
100
AcDbEntity
  8
0
 62
7
100
AcDbSpline
 70
8
 71
3
 72
8
 73
4
 74
0
 40
0
 40
0
 40
0
 40
0
 40
1
 40
1
 40
1
 40
1
 10
43.314060
 20
31.881897
 30
0.0
 10
43.367506
 20
31.899710
 30
0.0
 10
43.419568
 20
31.921633
 30
0.0
 10
43.470270
 20
31.947209
 30
0.0
  0
SPLINE
  5
105
100
AcDbEntity
  8
0
 62
7
100
AcDbSpline
 70
8
 71
3
 72
8
 73
4
 74
0
 40
0
 40
0
 40
0
 40
0
 40
1
 40
1
 40
1
 40
1
 10
43.470270
 20
31.947209
 30
0.0
 10
43.763489
 20
32.094278
 30
0.0
 10
43.982265
 20
32.347307
 30
0.0
 10
44.085488
 20
32.658799
 30
0.0
  0
SPLINE
  5
106
100
AcDbEntity
  8
0
 62
7
100
AcDbSpline
 70
8
 71
3
 72
8
 73
4
 74
0
 40
0
 40
0
 40
0
 40
0
 40
1
 40
1
 40
1
 40
1
 10
44.085488
 20
32.658799
 30
0.0
 10
44.188710
 20
32.970748
 30
0.0
 10
44.164503
 20
33.304161
 30
0.0
 10
44.016977
 20
33.597382
 30
0.0
  0
SPLINE
  5
107
100
AcDbEntity
  8
0
 62
7
100
AcDbSpline
 70
8
 71
3
 72
8
 73
4
 74
0
 40
0
 40
0
 40
0
 40
0
 40
1
 40
1
 40
1
 40
1
 10
44.016977
 20
33.597382
 30
0.0
 10
44.009205
 20
33.612456
 30
0.0
 10
44.001444
 20
33.627528
 30
0.0
 10
43.993226
 20
33.642141
 30
0.0
  0
SPLINE
  5
108
100
AcDbEntity
  8
0
 62
7
100
AcDbSpline
 70
8
 71
3
 72
8
 73
4
 74
0
 40
0
 40
0
 40
0
 40
0
 40
1
 40
1
 40
1
 40
1
 10
43.993226
 20
33.642141
 30
0.0
 10
44.000987
 20
33.662695
 30
0.0
 10
44.008759
 20
33.683705
 30
0.0
 10
44.015606
 20
33.704716
 30
0.0
  0
SPLINE
  5
109
100
AcDbEntity
  8
0
 62
7
100
AcDbSpline
 70
8
 71
3
 72
8
 73
4
 74
0
 40
0
 40
0
 40
0
 40
0
 40
1
 40
1
 40
1
 40
1
 10
44.015606
 20
33.704716
 30
0.0
 10
44.118830
 20
34.016662
 30
0.0
 10
44.094618
 20
34.349622
 30
0.0
 10
43.947096
 20
34.642843
 30
0.0
  0
SPLINE
  5
10a
100
AcDbEntity
  8
0
 62
7
100
AcDbSpline
 70
8
 71
3
 72
8
 73
4
 74
0
 40
0
 40
0
 40
0
 40
0
 40
1
 40
1
 40
1
 40
1
 10
43.947096
 20
34.642843
 30
0.0
 10
43.737452
 20
35.060754
 30
0.0
 10
43.316346
 20
35.320632
 30
0.0
 10
42.848653
 20
35.320632
 30
0.0
  0
SPLINE
  5
10b
100
AcDbEntity
  8
0
 62
7
100
AcDbSpline
 70
8
 71
3
 72
8
 73
4
 74
0
 40
0
 40
0
 40
0
 40
0
 40
1
 40
1
 40
1
 40
1
 10
42.848653
 20
35.320632
 30
0.0
 10
42.658199
 20
35.320632
 30
0.0
 10
42.467289
 20
35.275416
 30
0.0
 10
42.296917
 20
35.189550
 30
0.0
  0
SPLINE
  5
10c
100
AcDbEntity
  8
0
 62
7
100
AcDbSpline
 70
8
 71
3
 72
8
 73
4
 74
0
 40
0
 40
0
 40
0
 40
0
 40
1
 40
1
 40
1
 40
1
 10
42.296917
 20
35.189550
 30
0.0
 10
42.041611
 20
35.061208
 30
0.0
 10
41.843843
 20
34.853395
 30
0.0
 10
41.729202
 20
34.599453
 30
0.0
  0
SPLINE
  5
10d
100
AcDbEntity
  8
0
 62
7
100
AcDbSpline
 70
8
 71
3
 72
8
 73
4
 74
0
 40
0
 40
0
 40
0
 40
0
 40
1
 40
1
 40
1
 40
1
 10
41.729202
 20
34.599453
 30
0.0
 10
41.651103
 20
34.526834
 30
0.0
 10
41.492618
 20
34.398493
 30
0.0
 10
41.222231
 20
34.250509
 30
0.0
  0
SPLINE
  5
10e
100
AcDbEntity
  8
0
 62
7
100
AcDbSpline
 70
8
 71
3
 72
8
 73
4
 74
0
 40
0
 40
0
 40
0
 40
0
 40
1
 40
1
 40
1
 40
1
 10
41.222231
 20
34.250509
 30
0.0
 10
41.150069
 20
35.807053
 30
0.0
 10
40.417012
 20
36.287993
 30
0.0
 10
39.935158
 20
36.434602
 30
0.0
  0
SPLINE
  5
10f
100
AcDbEntity
  8
0
 62
7
100
AcDbSpline
 70
8
 71
3
 72
8
 73
4
 74
0
 40
0
 40
0
 40
0
 40
0
 40
1
 40
1
 40
1
 40
1
 10
39.935158
 20
36.434602
 30
0.0
 10
39.751093
 20
36.499460
 30
0.0
 10
39.557897
 20
36.532343
 30
0.0
 10
39.360591
 20
36.532343
 30
0.0
  0
SPLINE
  5
110
100
AcDbEntity
  8
0
 62
7
100
AcDbSpline
 70
8
 71
3
 72
8
 73
4
 74
0
 40
0
 40
0
 40
0
 40
0
 40
1
 40
1
 40
1
 40
1
 10
39.360591
 20
36.532343
 30
0.0
 10
39.214890
 20
36.532343
 30
0.0
 10
39.069196
 20
36.514073
 30
0.0
 10
38.926695
 20
36.478449
 30
0.0
  0
SPLINE
  5
111
100
AcDbEntity
  8
0
 62
7
100
AcDbSpline
 70
8
 71
3
 72
8
 73
4
 74
0
 40
0
 40
0
 40
0
 40
0
 40
1
 40
1
 40
1
 40
1
 10
38.926695
 20
36.478449
 30
0.0
 10
38.881937
 20
36.469314
 30
0.0
 10
38.837629
 20
36.456527
 30
0.0
 10
38.794242
 20
36.439625
 30
0.0
  0
SPLINE
  5
112
100
AcDbEntity
  8
0
 62
7
100
AcDbSpline
 70
8
 71
3
 72
8
 73
4
 74
0
 40
0
 40
0
 40
0
 40
0
 40
1
 40
1
 40
1
 40
1
 10
38.794242
 20
36.439625
 30
0.0
 10
38.698329
 20
36.407656
 30
0.0
 10
38.606069
 20
36.367921
 30
0.0
 10
38.517460
 20
36.321333
 30
0.0
  0
SPLINE
  5
113
100
AcDbEntity
  8
0
 62
7
100
AcDbSpline
 70
8
 71
3
 72
8
 73
4
 74
0
 40
0
 40
0
 40
0
 40
0
 40
1
 40
1
 40
1
 40
1
 10
38.517460
 20
36.321333
 30
0.0
 10
38.503304
 20
36.413137
 30
0.0
 10
38.483205
 20
36.503111
 30
0.0
 10
38.456265
 20
36.591260
 30
0.0
  0
SPLINE
  5
114
100
AcDbEntity
  8
0
 62
7
100
AcDbSpline
 70
8
 71
3
 72
8
 73
4
 74
0
 40
0
 40
0
 40
0
 40
0
 40
1
 40
1
 40
1
 40
1
 10
38.456265
 20
36.591260
 30
0.0
 10
38.446213
 20
36.747919
 30
0.0
 10
38.408306
 20
36.901840
 30
0.0
 10
38.343448
 20
37.045709
 30
0.0
  0
SPLINE
  5
115
100
AcDbEntity
  8
0
 62
7
100
AcDbSpline
 70
8
 71
3
 72
8
 73
4
 74
0
 40
0
 40
0
 40
0
 40
0
 40
1
 40
1
 40
1
 40
1
 10
38.343448
 20
37.045709
 30
0.0
 10
38.220133
 20
37.318834
 30
0.0
 10
38.045206
 20
37.570036
 30
0.0
 10
37.820492
 20
37.797491
 30
0.0
  0
SPLINE
  5
116
100
AcDbEntity
  8
0
 62
7
100
AcDbSpline
 70
8
 71
3
 72
8
 73
4
 74
0
 40
0
 40
0
 40
0
 40
0
 40
1
 40
1
 40
1
 40
1
 10
37.820492
 20
37.797491
 30
0.0
 10
37.825060
 20
37.823068
 30
0.0
 10
37.829173
 20
37.848645
 30
0.0
 10
37.832362
 20
37.874679
 30
0.0
  0
SPLINE
  5
117
100
AcDbEntity
  8
0
 62
7
100
AcDbSpline
 70
8
 71
3
 72
8
 73
4
 74
0
 40
0
 40
0
 40
0
 40
0
 40
1
 40
1
 40
1
 40
1
 10
37.832362
 20
37.874679
 30
0.0
 10
38.138376
 20
38.009415
 30
0.0
 10
38.376337
 20
38.177949
 30
0.0
 10
38.552172
 20
38.382565
 30
0.0
  0
SPLINE
  5
118
100
AcDbEntity
  8
0
 62
7
100
AcDbSpline
 70
8
 71
3
 72
8
 73
4
 74
0
 40
0
 40
0
 40
0
 40
0
 40
1
 40
1
 40
1
 40
1
 10
38.552172
 20
38.382565
 30
0.0
 10
38.788311
 20
38.656604
 30
0.0
 10
38.899293
 20
39.021532
 30
0.0
 10
38.856820
 20
39.383720
 30
0.0
  0
SPLINE
  5
119
100
AcDbEntity
  8
0
 62
7
100
AcDbSpline
 70
8
 71
3
 72
8
 73
4
 74
0
 40
0
 40
0
 40
0
 40
0
 40
1
 40
1
 40
1
 40
1
 10
38.856820
 20
39.383720
 30
0.0
 10
38.813885
 20
39.752761
 30
0.0
 10
38.617488
 20
40.089372
 30
0.0
 10
38.317417
 20
40.307688
 30
0.0
  0
SPLINE
  5
11a
100
AcDbEntity
  8
0
 62
7
100
AcDbSpline
 70
8
 71
3
 72
8
 73
4
 74
0
 40
0
 40
0
 40
0
 40
0
 40
1
 40
1
 40
1
 40
1
 10
38.317417
 20
40.307688
 30
0.0
 10
38.096812
 20
40.468001
 30
0.0
 10
37.849724
 20
40.591320
 30
0.0
 10
37.577971
 20
40.678100
 30
0.0
  0
SPLINE
  5
11b
100
AcDbEntity
  8
0
 62
7
100
AcDbSpline
 70
8
 71
3
 72
8
 73
4
 74
0
 40
0
 40
0
 40
0
 40
0
 40
1
 40
1
 40
1
 40
1
 10
37.577971
 20
40.678100
 30
0.0
 10
37.556957
 20
40.762137
 30
0.0
 10
37.527268
 20
40.844805
 30
0.0
 10
37.488448
 20
40.923822
 30
0.0
  0
SPLINE
  5
11c
100
AcDbEntity
  8
0
 62
7
100
AcDbSpline
 70
8
 71
3
 72
8
 73
4
 74
0
 40
0
 40
0
 40
0
 40
0
 40
1
 40
1
 40
1
 40
1
 10
37.488448
 20
40.923822
 30
0.0
 10
37.669769
 20
41.206539
 30
0.0
 10
37.776186
 20
41.479207
 30
0.0
 10
37.809526
 20
41.747765
 30
0.0
  0
SPLINE
  5
11d
100
AcDbEntity
  8
0
 62
7
100
AcDbSpline
 70
8
 71
3
 72
8
 73
4
 74
0
 40
0
 40
0
 40
0
 40
0
 40
1
 40
1
 40
1
 40
1
 10
37.809526
 20
41.747765
 30
0.0
 10
37.854748
 20
42.106756
 30
0.0
 10
37.745588
 20
42.472142
 30
0.0
 10
37.509913
 20
42.750750
 30
0.0
  0
SPLINE
  5
11e
100
AcDbEntity
  8
0
 62
7
100
AcDbSpline
 70
8
 71
3
 72
8
 73
4
 74
0
 40
0
 40
0
 40
0
 40
0
 40
1
 40
1
 40
1
 40
1
 10
37.509913
 20
42.750750
 30
0.0
 10
37.270128
 20
43.034379
 30
0.0
 10
36.920270
 20
43.206567
 30
0.0
 10
36.549409
 20
43.222552
 30
0.0
  0
SPLINE
  5
11f
100
AcDbEntity
  8
0
 62
7
100
AcDbSpline
 70
8
 71
3
 72
8
 73
4
 74
0
 40
0
 40
0
 40
0
 40
0
 40
1
 40
1
 40
1
 40
1
 10
36.549409
 20
43.222552
 30
0.0
 10
36.514240
 20
43.223922
 30
0.0
 10
36.479528
 20
43.224836
 30
0.0
 10
36.444816
 20
43.224836
 30
0.0
  0
SPLINE
  5
120
100
AcDbEntity
  8
0
 62
7
100
AcDbSpline
 70
8
 71
3
 72
8
 73
4
 74
0
 40
0
 40
0
 40
0
 40
0
 40
1
 40
1
 40
1
 40
1
 10
36.444816
 20
43.224836
 30
0.0
 10
36.237915
 20
43.224836
 30
0.0
 10
36.030100
 20
43.198802
 30
0.0
 10
35.821833
 20
43.146734
 30
0.0
  0
SPLINE
  5
121
100
AcDbEntity
  8
0
 62
7
100
AcDbSpline
 70
8
 71
3
 72
8
 73
4
 74
0
 40
0
 40
0
 40
0
 40
0
 40
1
 40
1
 40
1
 40
1
 10
35.821833
 20
43.146734
 30
0.0
 10
35.765199
 20
43.200628
 30
0.0
 10
35.703998
 20
43.249041
 30
0.0
 10
35.638683
 20
43.291517
 30
0.0
  0
SPLINE
  5
122
100
AcDbEntity
  8
0
 62
7
100
AcDbSpline
 70
8
 71
3
 72
8
 73
4
 74
0
 40
0
 40
0
 40
0
 40
0
 40
1
 40
1
 40
1
 40
1
 10
35.638683
 20
43.291517
 30
0.0
 10
35.635490
 20
43.529018
 30
0.0
 10
35.606709
 20
43.742311
 30
0.0
 10
35.551903
 20
43.932770
 30
0.0
  0
SPLINE
  5
123
100
AcDbEntity
  8
0
 62
7
100
AcDbSpline
 70
8
 71
3
 72
8
 73
4
 74
0
 40
0
 40
0
 40
0
 40
0
 40
1
 40
1
 40
1
 40
1
 10
35.551903
 20
43.932770
 30
0.0
 10
35.803563
 20
44.073442
 30
0.0
 10
36.004069
 20
44.301808
 30
0.0
 10
36.105462
 20
44.584525
 30
0.0
  0
SPLINE
  5
124
100
AcDbEntity
  8
0
 62
7
100
AcDbSpline
 70
8
 71
3
 72
8
 73
4
 74
0
 40
0
 40
0
 40
0
 40
0
 40
1
 40
1
 40
1
 40
1
 10
36.105462
 20
44.584525
 30
0.0
 10
36.215993
 20
44.890993
 30
0.0
 10
36.200461
 20
45.222124
 30
0.0
 10
36.062075
 20
45.517171
 30
0.0
  0
SPLINE
  5
125
100
AcDbEntity
  8
0
 62
7
100
AcDbSpline
 70
8
 71
3
 72
8
 73
4
 74
0
 40
0
 40
0
 40
0
 40
0
 40
1
 40
1
 40
1
 40
1
 10
36.062075
 20
45.517171
 30
0.0
 10
35.923227
 20
45.811764
 30
0.0
 10
35.677962
 20
46.035106
 30
0.0
 10
35.371496
 20
46.145635
 30
0.0
  0
SPLINE
  5
126
100
AcDbEntity
  8
0
 62
7
100
AcDbSpline
 70
8
 71
3
 72
8
 73
4
 74
0
 40
0
 40
0
 40
0
 40
0
 40
1
 40
1
 40
1
 40
1
 10
35.371496
 20
46.145635
 30
0.0
 10
35.238129
 20
46.193594
 30
0.0
 10
35.098829
 20
46.217799
 30
0.0
 10
34.957694
 20
46.217799
 30
0.0
  0
SPLINE
  5
127
100
AcDbEntity
  8
0
 62
7
100
AcDbSpline
 70
8
 71
3
 72
8
 73
4
 74
0
 40
0
 40
0
 40
0
 40
0
 40
1
 40
1
 40
1
 40
1
 10
34.957694
 20
46.217799
 30
0.0
 10
34.749422
 20
46.217799
 30
0.0
 10
34.549379
 20
46.164363
 30
0.0
 10
34.373532
 20
46.068447
 30
0.0
  0
SPLINE
  5
128
100
AcDbEntity
  8
0
 62
7
100
AcDbSpline
 70
8
 71
3
 72
8
 73
4
 74
0
 40
0
 40
0
 40
0
 40
0
 40
1
 40
1
 40
1
 40
1
 10
34.373532
 20
46.068447
 30
0.0
 10
34.321927
 20
46.095853
 30
0.0
 10
34.268030
 20
46.120058
 30
0.0
 10
34.211396
 20
46.140612
 30
0.0
  0
SPLINE
  5
129
100
AcDbEntity
  8
0
 62
7
100
AcDbSpline
 70
8
 71
3
 72
8
 73
4
 74
0
 40
0
 40
0
 40
0
 40
0
 40
1
 40
1
 40
1
 40
1
 10
34.211396
 20
46.140612
 30
0.0
 10
34.078028
 20
46.188568
 30
0.0
 10
33.938722
 20
46.212776
 30
0.0
 10
33.797599
 20
46.212776
 30
0.0
  0
SPLINE
  5
12a
100
AcDbEntity
  8
0
 62
7
100
AcDbSpline
 70
8
 71
3
 72
8
 73
4
 74
0
 40
0
 40
0
 40
0
 40
0
 40
1
 40
1
 40
1
 40
1
 10
33.797599
 20
46.212776
 30
0.0
 10
33.584755
 20
46.212776
 30
0.0
 10
33.380597
 20
46.157053
 30
0.0
 10
33.202476
 20
46.057029
 30
0.0
  0
SPLINE
  5
12b
100
AcDbEntity
  8
0
 62
7
100
AcDbSpline
 70
8
 71
3
 72
8
 73
4
 74
0
 40
0
 40
0
 40
0
 40
0
 40
1
 40
1
 40
1
 40
1
 10
33.202476
 20
46.057029
 30
0.0
 10
33.168221
 20
46.077583
 30
0.0
 10
33.132595
 20
46.096310
 30
0.0
 10
33.096054
 20
46.113666
 30
0.0
  0
SPLINE
  5
12c
100
AcDbEntity
  8
0
 62
7
100
AcDbSpline
 70
8
 71
3
 72
8
 73
4
 74
0
 40
0
 40
0
 40
0
 40
0
 40
1
 40
1
 40
1
 40
1
 10
33.096054
 20
46.113666
 30
0.0
 10
33.117976
 20
46.157511
 30
0.0
 10
33.137618
 20
46.203184
 30
0.0
 10
33.154974
 20
46.250229
 30
0.0
  0
SPLINE
  5
12d
100
AcDbEntity
  8
0
 62
7
100
AcDbSpline
 70
8
 71
3
 72
8
 73
4
 74
0
 40
0
 40
0
 40
0
 40
0
 40
1
 40
1
 40
1
 40
1
 10
33.154974
 20
46.250229
 30
0.0
 10
33.382883
 20
46.883261
 30
0.0
 10
33.053124
 20
47.583886
 30
0.0
 10
32.420545
 20
47.811798
 30
0.0
  0
SPLINE
  5
12e
100
AcDbEntity
  8
0
 62
7
100
AcDbSpline
 70
8
 71
3
 72
8
 73
4
 74
0
 40
0
 40
0
 40
0
 40
0
 40
1
 40
1
 40
1
 40
1
 10
32.420545
 20
47.811798
 30
0.0
 10
32.407304
 20
47.816364
 30
0.0
 10
32.394063
 20
47.820930
 30
0.0
 10
32.380816
 20
47.825042
 30
0.0
  0
SPLINE
  5
12f
100
AcDbEntity
  8
0
 62
7
100
AcDbSpline
 70
8
 71
3
 72
8
 73
4
 74
0
 40
0
 40
0
 40
0
 40
0
 40
1
 40
1
 40
1
 40
1
 10
32.380816
 20
47.825042
 30
0.0
 10
32.373506
 20
47.842855
 30
0.0
 10
32.365740
 20
47.860211
 30
0.0
 10
32.357522
 20
47.877567
 30
0.0
  0
SPLINE
  5
130
100
AcDbEntity
  8
0
 62
7
100
AcDbSpline
 70
8
 71
3
 72
8
 73
4
 74
0
 40
0
 40
0
 40
0
 40
0
 40
1
 40
1
 40
1
 40
1
 10
32.357522
 20
47.877567
 30
0.0
 10
32.219130
 20
48.172614
 30
0.0
 10
31.973865
 20
48.395499
 30
0.0
 10
31.666937
 20
48.506028
 30
0.0
  0
SPLINE
  5
131
100
AcDbEntity
  8
0
 62
7
100
AcDbSpline
 70
8
 71
3
 72
8
 73
4
 74
0
 40
0
 40
0
 40
0
 40
0
 40
1
 40
1
 40
1
 40
1
 10
31.666937
 20
48.506028
 30
0.0
 10
31.534032
 20
48.553987
 30
0.0
 10
31.394727
 20
48.578192
 30
0.0
 10
31.253598
 20
48.578192
 30
0.0
  0
SPLINE
  5
132
100
AcDbEntity
  8
0
 62
7
100
AcDbSpline
 70
8
 71
3
 72
8
 73
4
 74
0
 40
0
 40
0
 40
0
 40
0
 40
1
 40
1
 40
1
 40
1
 10
31.253598
 20
48.578192
 30
0.0
 10
30.740689
 20
48.578192
 30
0.0
 10
30.279391
 20
48.254370
 30
0.0
 10
30.105831
 20
47.771604
 30
0.0
  0
SPLINE
  5
133
100
AcDbEntity
  8
0
 62
7
100
AcDbSpline
 70
8
 71
3
 72
8
 73
4
 74
0
 40
0
 40
0
 40
0
 40
0
 40
1
 40
1
 40
1
 40
1
 10
30.105831
 20
47.771604
 30
0.0
 10
30.009917
 20
47.505786
 30
0.0
 10
30.009460
 20
47.222154
 30
0.0
 10
30.099436
 20
46.962274
 30
0.0
  0
SPLINE
  5
134
100
AcDbEntity
  8
0
 62
7
100
AcDbSpline
 70
8
 71
3
 72
8
 73
4
 74
0
 40
0
 40
0
 40
0
 40
0
 40
1
 40
1
 40
1
 40
1
 10
30.099436
 20
46.962274
 30
0.0
 10
30.092584
 20
46.862249
 30
0.0
 10
30.067918
 20
46.677273
 30
0.0
 10
29.985253
 20
46.410543
 30
0.0
  0
SPLINE
  5
135
100
AcDbEntity
  8
0
 62
7
100
AcDbSpline
 70
8
 71
3
 72
8
 73
4
 74
0
 40
0
 40
0
 40
0
 40
0
 40
1
 40
1
 40
1
 40
1
 10
29.985253
 20
46.410543
 30
0.0
 10
29.408857
 20
46.959533
 30
0.0
 10
28.842056
 20
47.237227
 30
0.0
 10
28.295344
 20
47.237227
 30
0.0
  0
SPLINE
  5
136
100
AcDbEntity
  8
0
 62
7
100
AcDbSpline
 70
8
 71
3
 72
8
 73
4
 74
0
 40
0
 40
0
 40
0
 40
0
 40
1
 40
1
 40
1
 40
1
 10
28.295344
 20
47.237227
 30
0.0
 10
28.051908
 20
47.237227
 30
0.0
 10
27.819428
 20
47.182419
 30
0.0
 10
27.603851
 20
47.075088
 30
0.0
  0
SPLINE
  5
137
100
AcDbEntity
  8
0
 62
7
100
AcDbSpline
 70
8
 71
3
 72
8
 73
4
 74
0
 40
0
 40
0
 40
0
 40
0
 40
1
 40
1
 40
1
 40
1
 10
27.603851
 20
47.075088
 30
0.0
 10
27.288254
 20
46.933956
 30
0.0
 10
27.016952
 20
46.693258
 30
0.0
 10
26.833350
 20
46.391816
 30
0.0
  0
SPLINE
  5
138
100
AcDbEntity
  8
0
 62
7
100
AcDbSpline
 70
8
 71
3
 72
8
 73
4
 74
0
 40
0
 40
0
 40
0
 40
0
 40
1
 40
1
 40
1
 40
1
 10
26.833350
 20
46.391816
 30
0.0
 10
26.819189
 20
46.370351
 30
0.0
 10
26.806399
 20
46.347969
 30
0.0
 10
26.794524
 20
46.324678
 30
0.0
  0
SPLINE
  5
139
100
AcDbEntity
  8
0
 62
7
100
AcDbSpline
 70
8
 71
3
 72
8
 73
4
 74
0
 40
0
 40
0
 40
0
 40
0
 40
1
 40
1
 40
1
 40
1
 10
26.794524
 20
46.324678
 30
0.0
 10
26.746565
 20
46.237441
 30
0.0
 10
26.705920
 20
46.147009
 30
0.0
 10
26.673037
 20
46.053833
 30
0.0
  0
SPLINE
  5
13a
100
AcDbEntity
  8
0
 62
7
100
AcDbSpline
 70
8
 71
3
 72
8
 73
4
 74
0
 40
0
 40
0
 40
0
 40
0
 40
1
 40
1
 40
1
 40
1
 10
26.673037
 20
46.053833
 30
0.0
 10
26.435990
 20
46.231503
 30
0.0
 10
26.165146
 20
46.357104
 30
0.0
 10
25.860509
 20
46.387250
 30
0.0
  0
SPLINE
  5
13b
100
AcDbEntity
  8
0
 62
7
100
AcDbSpline
 70
8
 71
3
 72
8
 73
4
 74
0
 40
0
 40
0
 40
0
 40
0
 40
1
 40
1
 40
1
 40
1
 10
25.860509
 20
46.387250
 30
0.0
 10
25.002308
 20
47.078740
 30
0.0
 10
23.713869
 20
47.482950
 30
0.0
 10
22.327225
 20
47.482950
 30
0.0
  0
SPLINE
  5
13c
100
AcDbEntity
  8
0
 62
7
100
AcDbSpline
 70
8
 71
3
 72
8
 73
4
 74
0
 40
0
 40
0
 40
0
 40
0
 40
1
 40
1
 40
1
 40
1
 10
22.327225
 20
47.482950
 30
0.0
 10
21.390467
 20
47.482950
 30
0.0
 10
20.501212
 20
47.302997
 30
0.0
 10
19.743037
 20
46.961363
 30
0.0
  0
SPLINE
  5
13d
100
AcDbEntity
  8
0
 62
7
100
AcDbSpline
 70
8
 71
3
 72
8
 73
4
 74
0
 40
0
 40
0
 40
0
 40
0
 40
1
 40
1
 40
1
 40
1
 10
19.743037
 20
46.961363
 30
0.0
 10
19.685037
 20
47.447780
 30
0.0
 10
19.579529
 20
47.890354
 30
0.0
 10
19.426063
 20
48.285428
 30
0.0
  0
SPLINE
  5
13e
100
AcDbEntity
  8
0
 62
7
100
AcDbSpline
 70
8
 71
3
 72
8
 73
4
 74
0
 40
0
 40
0
 40
0
 40
0
 40
1
 40
1
 40
1
 40
1
 10
19.426063
 20
48.285428
 30
0.0
 10
19.433835
 20
48.303238
 30
0.0
 10
19.440681
 20
48.321509
 30
0.0
 10
19.447533
 20
48.339779
 30
0.0
  0
SPLINE
  5
13f
100
AcDbEntity
  8
0
 62
7
100
AcDbSpline
 70
8
 71
3
 72
8
 73
4
 74
0
 40
0
 40
0
 40
0
 40
0
 40
1
 40
1
 40
1
 40
1
 10
19.447533
 20
48.339779
 30
0.0
 10
19.558979
 20
48.645787
 30
0.0
 10
19.544360
 20
48.977375
 30
0.0
 10
19.406884
 20
49.272882
 30
0.0
  0
SPLINE
  5
140
100
AcDbEntity
  8
0
 62
7
100
AcDbSpline
 70
8
 71
3
 72
8
 73
4
 74
0
 40
0
 40
0
 40
0
 40
0
 40
1
 40
1
 40
1
 40
1
 10
19.406884
 20
49.272882
 30
0.0
 10
19.207292
 20
49.700840
 30
0.0
 10
18.772940
 20
49.977162
 30
0.0
 10
18.300680
 20
49.977162
 30
0.0
  0
SPLINE
  5
141
100
AcDbEntity
  8
0
 62
7
100
AcDbSpline
 70
8
 71
3
 72
8
 73
4
 74
0
 40
0
 40
0
 40
0
 40
0
 40
1
 40
1
 40
1
 40
1
 10
18.300680
 20
49.977162
 30
0.0
 10
18.121639
 20
49.977162
 30
0.0
 10
17.948084
 20
49.938795
 30
0.0
 10
17.785485
 20
49.862979
 30
0.0
  0
SPLINE
  5
142
100
AcDbEntity
  8
0
 62
7
100
AcDbSpline
 70
8
 71
3
 72
8
 73
4
 74
0
 40
0
 40
0
 40
0
 40
0
 40
1
 40
1
 40
1
 40
1
 10
17.785485
 20
49.862979
 30
0.0
 10
17.457097
 20
49.709972
 30
0.0
 10
17.228274
 20
49.428169
 30
0.0
 10
17.132356
 20
49.105262
 30
0.0
  0
SPLINE
  5
143
100
AcDbEntity
  8
0
 62
7
100
AcDbSpline
 70
8
 71
3
 72
8
 73
4
 74
0
 40
0
 40
0
 40
0
 40
0
 40
1
 40
1
 40
1
 40
1
 10
17.132356
 20
49.105262
 30
0.0
 10
17.075722
 20
49.088360
 30
0.0
 10
17.020002
 20
49.067353
 30
0.0
 10
16.965653
 20
49.041776
 30
0.0
  0
SPLINE
  5
144
100
AcDbEntity
  8
0
 62
7
100
AcDbSpline
 70
8
 71
3
 72
8
 73
4
 74
0
 40
0
 40
0
 40
0
 40
0
 40
1
 40
1
 40
1
 40
1
 10
16.965653
 20
49.041776
 30
0.0
 10
16.633151
 20
48.886943
 30
0.0
 10
16.403413
 20
48.599660
 30
0.0
 10
16.308867
 20
48.272181
 30
0.0
  0
SPLINE
  5
145
100
AcDbEntity
  8
0
 62
7
100
AcDbSpline
 70
8
 71
3
 72
8
 73
4
 74
0
 40
0
 40
0
 40
0
 40
0
 40
1
 40
1
 40
1
 40
1
 10
16.308867
 20
48.272181
 30
0.0
 10
16.270051
 20
48.262134
 30
0.0
 10
16.231682
 20
48.250716
 30
0.0
 10
16.193775
 20
48.237014
 30
0.0
  0
SPLINE
  5
146
100
AcDbEntity
  8
0
 62
7
100
AcDbSpline
 70
8
 71
3
 72
8
 73
4
 74
0
 40
0
 40
0
 40
0
 40
0
 40
1
 40
1
 40
1
 40
1
 10
16.193775
 20
48.237014
 30
0.0
 10
16.178247
 20
48.283599
 30
0.0
 10
16.160429
 20
48.330187
 30
0.0
 10
16.138964
 20
48.375403
 30
0.0
  0
SPLINE
  5
147
100
AcDbEntity
  8
0
 62
7
100
AcDbSpline
 70
8
 71
3
 72
8
 73
4
 74
0
 40
0
 40
0
 40
0
 40
0
 40
1
 40
1
 40
1
 40
1
 10
16.138964
 20
48.375403
 30
0.0
 10
15.939377
 20
48.803360
 30
0.0
 10
15.505482
 20
49.080140
 30
0.0
 10
15.032760
 20
49.080140
 30
0.0
  0
SPLINE
  5
148
100
AcDbEntity
  8
0
 62
7
100
AcDbSpline
 70
8
 71
3
 72
8
 73
4
 74
0
 40
0
 40
0
 40
0
 40
0
 40
1
 40
1
 40
1
 40
1
 10
15.032760
 20
49.080140
 30
0.0
 10
14.853725
 20
49.080140
 30
0.0
 10
14.680621
 20
49.041776
 30
0.0
 10
14.517565
 20
48.965957
 30
0.0
  0
SPLINE
  5
149
100
AcDbEntity
  8
0
 62
7
100
AcDbSpline
 70
8
 71
3
 72
8
 73
4
 74
0
 40
0
 40
0
 40
0
 40
0
 40
1
 40
1
 40
1
 40
1
 10
14.517565
 20
48.965957
 30
0.0
 10
14.504775
 20
48.959565
 30
0.0
 10
14.491991
 20
48.953627
 30
0.0
 10
14.479201
 20
48.947232
 30
0.0
  0
SPLINE
  5
14a
100
AcDbEntity
  8
0
 62
7
100
AcDbSpline
 70
8
 71
3
 72
8
 73
4
 74
0
 40
0
 40
0
 40
0
 40
0
 40
1
 40
1
 40
1
 40
1
 10
14.479201
 20
48.947232
 30
0.0
 10
14.332592
 20
49.008433
 30
0.0
 10
14.173192
 20
49.041776
 30
0.0
 10
14.009227
 20
49.041776
 30
0.0
  0
SPLINE
  5
14b
100
AcDbEntity
  8
0
 62
7
100
AcDbSpline
 70
8
 71
3
 72
8
 73
4
 74
0
 40
0
 40
0
 40
0
 40
0
 40
1
 40
1
 40
1
 40
1
 10
14.009227
 20
49.041776
 30
0.0
 10
13.830186
 20
49.041776
 30
0.0
 10
13.656631
 20
49.003410
 30
0.0
 10
13.494032
 20
48.927593
 30
0.0
  0
SPLINE
  5
14c
100
AcDbEntity
  8
0
 62
7
100
AcDbSpline
 70
8
 71
3
 72
8
 73
4
 74
0
 40
0
 40
0
 40
0
 40
0
 40
1
 40
1
 40
1
 40
1
 10
13.494032
 20
48.927593
 30
0.0
 10
13.198528
 20
48.790117
 30
0.0
 10
12.974271
 20
48.545309
 30
0.0
 10
12.862825
 20
48.239298
 30
0.0
  0
SPLINE
  5
14d
100
AcDbEntity
  8
0
 62
7
100
AcDbSpline
 70
8
 71
3
 72
8
 73
4
 74
0
 40
0
 40
0
 40
0
 40
0
 40
1
 40
1
 40
1
 40
1
 10
12.862825
 20
48.239298
 30
0.0
 10
12.751386
 20
47.932829
 30
0.0
 10
12.766004
 20
47.601699
 30
0.0
 10
12.903476
 20
47.306194
 30
0.0
  0
SPLINE
  5
14e
100
AcDbEntity
  8
0
 62
7
100
AcDbSpline
 70
8
 71
3
 72
8
 73
4
 74
0
 40
0
 40
0
 40
0
 40
0
 40
1
 40
1
 40
1
 40
1
 10
12.903476
 20
47.306194
 30
0.0
 10
13.022682
 20
47.050423
 30
0.0
 10
13.222279
 20
46.848548
 30
0.0
 10
13.469367
 20
46.727513
 30
0.0
  0
SPLINE
  5
14f
100
AcDbEntity
  8
0
 62
7
100
AcDbSpline
 70
8
 71
3
 72
8
 73
4
 74
0
 40
0
 40
0
 40
0
 40
0
 40
1
 40
1
 40
1
 40
1
 10
13.469367
 20
46.727513
 30
0.0
 10
13.534677
 20
46.651697
 30
0.0
 10
13.647951
 20
46.502802
 30
0.0
 10
13.777204
 20
46.255254
 30
0.0
  0
SPLINE
  5
150
100
AcDbEntity
  8
0
 62
7
100
AcDbSpline
 70
8
 71
3
 72
8
 73
4
 74
0
 40
0
 40
0
 40
0
 40
0
 40
1
 40
1
 40
1
 40
1
 10
13.777204
 20
46.255254
 30
0.0
 10
12.328451
 20
46.225108
 30
0.0
 10
11.802753
 20
45.592992
 30
0.0
 10
11.619145
 20
45.049480
 30
0.0
  0
SPLINE
  5
151
100
AcDbEntity
  8
0
 62
7
100
AcDbSpline
 70
8
 71
3
 72
8
 73
4
 74
0
 40
0
 40
0
 40
0
 40
0
 40
1
 40
1
 40
1
 40
1
 10
11.619145
 20
45.049480
 30
0.0
 10
11.609099
 20
45.022534
 30
0.0
 10
11.599509
 20
44.995129
 30
0.0
 10
11.590371
 20
44.967726
 30
0.0
  0
SPLINE
  5
152
100
AcDbEntity
  8
0
 62
7
100
AcDbSpline
 70
8
 71
3
 72
8
 73
4
 74
0
 40
0
 40
0
 40
0
 40
0
 40
1
 40
1
 40
1
 40
1
 10
11.590371
 20
44.967726
 30
0.0
 10
11.199869
 20
44.941235
 30
0.0
 10
10.835855
 20
44.742100
 30
0.0
 10
10.603831
 20
44.423302
 30
0.0
  0
SPLINE
  5
153
100
AcDbEntity
  8
0
 62
7
100
AcDbSpline
 70
8
 71
3
 72
8
 73
4
 74
0
 40
0
 40
0
 40
0
 40
0
 40
1
 40
1
 40
1
 40
1
 10
10.603831
 20
44.423302
 30
0.0
 10
10.443518
 20
44.203157
 30
0.0
 10
10.319745
 20
43.956064
 30
0.0
 10
10.232965
 20
43.684311
 30
0.0
  0
SPLINE
  5
154
100
AcDbEntity
  8
0
 62
7
100
AcDbSpline
 70
8
 71
3
 72
8
 73
4
 74
0
 40
0
 40
0
 40
0
 40
0
 40
1
 40
1
 40
1
 40
1
 10
10.232965
 20
43.684311
 30
0.0
 10
10.147556
 20
43.662843
 30
0.0
 10
10.065799
 20
43.632700
 30
0.0
 10
9.987243
 20
43.594790
 30
0.0
  0
SPLINE
  5
155
100
AcDbEntity
  8
0
 62
7
100
AcDbSpline
 70
8
 71
3
 72
8
 73
4
 74
0
 40
0
 40
0
 40
0
 40
0
 40
1
 40
1
 40
1
 40
1
 10
9.987243
 20
43.594790
 30
0.0
 10
9.704986
 20
43.776569
 30
0.0
 10
9.431861
 20
43.882988
 30
0.0
 10
9.163296
 20
43.917243
 30
0.0
  0
SPLINE
  5
156
100
AcDbEntity
  8
0
 62
7
100
AcDbSpline
 70
8
 71
3
 72
8
 73
4
 74
0
 40
0
 40
0
 40
0
 40
0
 40
1
 40
1
 40
1
 40
1
 10
9.163296
 20
43.917243
 30
0.0
 10
9.109405
 20
43.923638
 30
0.0
 10
9.054600
 20
43.927290
 30
0.0
 10
9.000703
 20
43.927290
 30
0.0
  0
SPLINE
  5
157
100
AcDbEntity
  8
0
 62
7
100
AcDbSpline
 70
8
 71
3
 72
8
 73
4
 74
0
 40
0
 40
0
 40
0
 40
0
 40
1
 40
1
 40
1
 40
1
 10
9.000703
 20
43.927290
 30
0.0
 10
8.295506
 20
43.927290
 30
0.0
 10
7.718658
 20
43.370079
 30
0.0
 10
7.687598
 20
42.658032
 30
0.0
  0
SPLINE
  5
158
100
AcDbEntity
  8
0
 62
7
100
AcDbSpline
 70
8
 71
3
 72
8
 73
4
 74
0
 40
0
 40
0
 40
0
 40
0
 40
1
 40
1
 40
1
 40
1
 10
7.687598
 20
42.658032
 30
0.0
 10
7.677089
 20
42.417334
 30
0.0
 10
7.701754
 20
42.174355
 30
0.0
 10
7.762045
 20
41.930916
 30
0.0
  0
SPLINE
  5
159
100
AcDbEntity
  8
0
 62
7
100
AcDbSpline
 70
8
 71
3
 72
8
 73
4
 74
0
 40
0
 40
0
 40
0
 40
0
 40
1
 40
1
 40
1
 40
1
 10
7.762045
 20
41.930916
 30
0.0
 10
7.719567
 20
41.886154
 30
0.0
 10
7.679831
 20
41.838198
 30
0.0
 10
7.643748
 20
41.787044
 30
0.0
  0
SPLINE
  5
15a
100
AcDbEntity
  8
0
 62
7
100
AcDbSpline
 70
8
 71
3
 72
8
 73
4
 74
0
 40
0
 40
0
 40
0
 40
0
 40
1
 40
1
 40
1
 40
1
 10
7.643748
 20
41.787044
 30
0.0
 10
7.634615
 20
41.774257
 30
0.0
 10
7.625940
 20
41.761010
 30
0.0
 10
7.617259
 20
41.747766
 30
0.0
  0
SPLINE
  5
15b
100
AcDbEntity
  8
0
 62
7
100
AcDbSpline
 70
8
 71
3
 72
8
 73
4
 74
0
 40
0
 40
0
 40
0
 40
0
 40
1
 40
1
 40
1
 40
1
 10
7.617259
 20
41.747766
 30
0.0
 10
7.220813
 20
41.743199
 30
0.0
 10
6.895626
 20
41.667381
 30
0.0
 10
6.623410
 20
41.517574
 30
0.0
  0
SPLINE
  5
15c
100
AcDbEntity
  8
0
 62
7
100
AcDbSpline
 70
8
 71
3
 72
8
 73
4
 74
0
 40
0
 40
0
 40
0
 40
0
 40
1
 40
1
 40
1
 40
1
 10
6.623410
 20
41.517574
 30
0.0
 10
6.306892
 20
41.343102
 30
0.0
 10
6.075789
 20
41.039374
 30
0.0
 10
5.989009
 20
40.685407
 30
0.0
  0
SPLINE
  5
15d
100
AcDbEntity
  8
0
 62
7
100
AcDbSpline
 70
8
 71
3
 72
8
 73
4
 74
0
 40
0
 40
0
 40
0
 40
0
 40
1
 40
1
 40
1
 40
1
 10
5.989009
 20
40.685407
 30
0.0
 10
5.900405
 20
40.324590
 30
0.0
 10
5.967086
 20
39.940020
 30
0.0
 10
6.172616
 20
39.630814
 30
0.0
  0
SPLINE
  5
15e
100
AcDbEntity
  8
0
 62
7
100
AcDbSpline
 70
8
 71
3
 72
8
 73
4
 74
0
 40
0
 40
0
 40
0
 40
0
 40
1
 40
1
 40
1
 40
1
 10
6.172616
 20
39.630814
 30
0.0
 10
6.273552
 20
39.478721
 30
0.0
 10
6.391849
 20
39.337590
 30
0.0
 10
6.526583
 20
39.207880
 30
0.0
  0
SPLINE
  5
15f
100
AcDbEntity
  8
0
 62
7
100
AcDbSpline
 70
8
 71
3
 72
8
 73
4
 74
0
 40
0
 40
0
 40
0
 40
0
 40
1
 40
1
 40
1
 40
1
 10
6.526583
 20
39.207880
 30
0.0
 10
6.517908
 20
39.172710
 30
0.0
 10
6.510598
 20
39.136630
 30
0.0
 10
6.504661
 20
39.100546
 30
0.0
  0
SPLINE
  5
160
100
AcDbEntity
  8
0
 62
7
100
AcDbSpline
 70
8
 71
3
 72
8
 73
4
 74
0
 40
0
 40
0
 40
0
 40
0
 40
1
 40
1
 40
1
 40
1
 10
6.504661
 20
39.100546
 30
0.0
 10
6.499180
 20
39.064465
 30
0.0
 10
6.495071
 20
39.027927
 30
0.0
 10
6.492785
 20
38.991844
 30
0.0
  0
SPLINE
  5
161
100
AcDbEntity
  8
0
 62
7
100
AcDbSpline
 70
8
 71
3
 72
8
 73
4
 74
0
 40
0
 40
0
 40
0
 40
0
 40
1
 40
1
 40
1
 40
1
 10
6.492785
 20
38.991844
 30
0.0
 10
6.164855
 20
38.807325
 30
0.0
 10
5.923242
 20
38.593575
 30
0.0
 10
5.761557
 20
38.346481
 30
0.0
  0
SPLINE
  5
162
100
AcDbEntity
  8
0
 62
7
100
AcDbSpline
 70
8
 71
3
 72
8
 73
4
 74
0
 40
0
 40
0
 40
0
 40
0
 40
1
 40
1
 40
1
 40
1
 10
5.761557
 20
38.346481
 30
0.0
 10
5.562879
 20
38.044125
 30
0.0
 10
5.500308
 20
37.667778
 30
0.0
 10
5.588911
 20
37.314268
 30
0.0
  0
SPLINE
  5
163
100
AcDbEntity
  8
0
 62
7
100
AcDbSpline
 70
8
 71
3
 72
8
 73
4
 74
0
 40
0
 40
0
 40
0
 40
0
 40
1
 40
1
 40
1
 40
1
 10
5.588911
 20
37.314268
 30
0.0
 10
5.676605
 20
36.965781
 30
0.0
 10
5.902234
 20
36.666165
 30
0.0
 10
6.211443
 20
36.486670
 30
0.0
  0
SPLINE
  5
164
100
AcDbEntity
  8
0
 62
7
100
AcDbSpline
 70
8
 71
3
 72
8
 73
4
 74
0
 40
0
 40
0
 40
0
 40
0
 40
1
 40
1
 40
1
 40
1
 10
6.211443
 20
36.486670
 30
0.0
 10
5.986271
 20
36.399435
 30
0.0
 10
5.739635
 20
36.243230
 30
0.0
 10
5.498479
 20
35.973760
 30
0.0
  0
SPLINE
  5
165
100
AcDbEntity
  8
0
 62
7
100
AcDbSpline
 70
8
 71
3
 72
8
 73
4
 74
0
 40
0
 40
0
 40
0
 40
0
 40
1
 40
1
 40
1
 40
1
 10
5.498479
 20
35.973760
 30
0.0
 10
5.341823
 20
35.798831
 30
0.0
 10
5.192928
 20
35.583252
 30
0.0
 10
5.049514
 20
35.323374
 30
0.0
  0
SPLINE
  5
166
100
AcDbEntity
  8
0
 62
7
100
AcDbSpline
 70
8
 71
3
 72
8
 73
4
 74
0
 40
0
 40
0
 40
0
 40
0
 40
1
 40
1
 40
1
 40
1
 10
5.049514
 20
35.323374
 30
0.0
 10
4.606480
 20
35.536667
 30
0.0
 10
4.174871
 20
35.685562
 30
0.0
 10
3.757874
 20
35.768688
 30
0.0
  0
SPLINE
  5
167
100
AcDbEntity
  8
0
 62
7
100
AcDbSpline
 70
8
 71
3
 72
8
 73
4
 74
0
 40
0
 40
0
 40
0
 40
0
 40
1
 40
1
 40
1
 40
1
 10
3.757874
 20
35.768688
 30
0.0
 10
3.568329
 20
36.040898
 30
0.0
 10
3.269168
 20
36.235467
 30
0.0
 10
2.915200
 20
36.282054
 30
0.0
  0
SPLINE
  5
168
100
AcDbEntity
  8
0
 62
7
100
AcDbSpline
 70
8
 71
3
 72
8
 73
4
 74
0
 40
0
 40
0
 40
0
 40
0
 40
1
 40
1
 40
1
 40
1
 10
2.915200
 20
36.282054
 30
0.0
 10
2.862681
 20
36.288903
 30
0.0
 10
2.809247
 20
36.292101
 30
0.0
 10
2.756259
 20
36.292101
 30
0.0
  0
SPLINE
  5
169
100
AcDbEntity
  8
0
 62
7
100
AcDbSpline
 70
8
 71
3
 72
8
 73
4
 74
0
 40
0
 40
0
 40
0
 40
0
 40
1
 40
1
 40
1
 40
1
 10
2.756259
 20
36.292101
 30
0.0
 10
2.146071
 20
36.292101
 30
0.0
 10
1.626304
 20
35.835826
 30
0.0
 10
1.546833
 20
35.230656
 30
0.0
  0
SPLINE
  5
16a
100
AcDbEntity
  8
0
 62
7
100
AcDbSpline
 70
8
 71
3
 72
8
 73
4
 74
0
 40
0
 40
0
 40
0
 40
0
 40
1
 40
1
 40
1
 40
1
 10
1.546833
 20
35.230656
 30
0.0
 10
1.504817
 20
34.907289
 30
0.0
 10
1.590678
 20
34.587119
 30
0.0
 10
1.789361
 20
34.328610
 30
0.0
  0
SPLINE
  5
16b
100
AcDbEntity
  8
0
 62
7
100
AcDbSpline
 70
8
 71
3
 72
8
 73
4
 74
0
 40
0
 40
0
 40
0
 40
0
 40
1
 40
1
 40
1
 40
1
 10
1.789361
 20
34.328610
 30
0.0
 10
1.804436
 20
34.309429
 30
0.0
 10
1.819501
 20
34.290244
 30
0.0
 10
1.835491
 20
34.271976
 30
0.0
  0
SPLINE
  5
16c
100
AcDbEntity
  8
0
 62
7
100
AcDbSpline
 70
8
 71
3
 72
8
 73
4
 74
0
 40
0
 40
0
 40
0
 40
0
 40
1
 40
1
 40
1
 40
1
 10
1.835491
 20
34.271976
 30
0.0
 10
1.819958
 20
34.215799
 30
0.0
 10
1.807625
 20
34.157793
 30
0.0
 10
1.799865
 20
34.098418
 30
0.0
  0
SPLINE
  5
16d
100
AcDbEntity
  8
0
 62
7
100
AcDbSpline
 70
8
 71
3
 72
8
 73
4
 74
0
 40
0
 40
0
 40
0
 40
0
 40
1
 40
1
 40
1
 40
1
 10
1.799865
 20
34.098418
 30
0.0
 10
1.757849
 20
33.775508
 30
0.0
 10
1.843709
 20
33.454882
 30
0.0
 10
2.042392
 20
33.196373
 30
0.0
  0
SPLINE
  5
16e
100
AcDbEntity
  8
0
 62
7
100
AcDbSpline
 70
8
 71
3
 72
8
 73
4
 74
0
 40
0
 40
0
 40
0
 40
0
 40
1
 40
1
 40
1
 40
1
 10
2.042392
 20
33.196373
 30
0.0
 10
2.059742
 20
33.173536
 30
0.0
 10
2.078018
 20
33.151611
 30
0.0
 10
2.097198
 20
33.130146
 30
0.0
  0
SPLINE
  5
16f
100
AcDbEntity
  8
0
 62
7
100
AcDbSpline
 70
8
 71
3
 72
8
 73
4
 74
0
 40
0
 40
0
 40
0
 40
0
 40
1
 40
1
 40
1
 40
1
 10
2.097198
 20
33.130146
 30
0.0
 10
2.084408
 20
33.092694
 30
0.0
 10
2.073904
 20
33.053873
 30
0.0
 10
2.064771
 20
33.015049
 30
0.0
  0
SPLINE
  5
170
100
AcDbEntity
  8
0
 62
7
100
AcDbSpline
 70
8
 71
3
 72
8
 73
4
 74
0
 40
0
 40
0
 40
0
 40
0
 40
1
 40
1
 40
1
 40
1
 10
2.064771
 20
33.015049
 30
0.0
 10
2.017269
 20
33.026924
 30
0.0
 10
1.968396
 20
33.036516
 30
0.0
 10
1.918619
 20
33.042909
 30
0.0
  0
SPLINE
  5
171
100
AcDbEntity
  8
0
 62
7
100
AcDbSpline
 70
8
 71
3
 72
8
 73
4
 74
0
 40
0
 40
0
 40
0
 40
0
 40
1
 40
1
 40
1
 40
1
 10
1.918619
 20
33.042909
 30
0.0
 10
1.866088
 20
33.049761
 30
0.0
 10
1.812654
 20
33.053416
 30
0.0
 10
1.759672
 20
33.053416
 30
0.0
  0
SPLINE
  5
172
100
AcDbEntity
  8
0
 62
7
100
AcDbSpline
 70
8
 71
3
 72
8
 73
4
 74
0
 40
0
 40
0
 40
0
 40
0
 40
1
 40
1
 40
1
 40
1
 10
1.759672
 20
33.053416
 30
0.0
 10
1.149479
 20
33.053416
 30
0.0
 10
0.629718
 20
32.597141
 30
0.0
 10
0.550247
 20
31.991971
 30
0.0
  0
SPLINE
  5
173
100
AcDbEntity
  8
0
 62
7
100
AcDbSpline
 70
8
 71
3
 72
8
 73
4
 74
0
 40
0
 40
0
 40
0
 40
0
 40
1
 40
1
 40
1
 40
1
 10
0.550247
 20
31.991971
 30
0.0
 10
0.548423
 20
31.977812
 30
0.0
 10
0.547052
 20
31.963197
 30
0.0
 10
0.545680
 20
31.949038
 30
0.0
  0
SPLINE
  5
174
100
AcDbEntity
  8
0
 62
7
100
AcDbSpline
 70
8
 71
3
 72
8
 73
4
 74
0
 40
0
 40
0
 40
0
 40
0
 40
1
 40
1
 40
1
 40
1
 10
0.545680
 20
31.949038
 30
0.0
 10
0.272555
 20
31.758122
 30
0.0
 10
0.078902
 20
31.457594
 30
0.0
 10
0.033228
 20
31.107279
 30
0.0
  0
SPLINE
  5
175
100
AcDbEntity
  8
0
 62
7
100
AcDbSpline
 70
8
 71
3
 72
8
 73
4
 74
0
 40
0
 40
0
 40
0
 40
0
 40
1
 40
1
 40
1
 40
1
 10
0.033228
 20
31.107279
 30
0.0
 10
-0.054009
 20
30.440451
 30
0.0
 10
0.417336
 20
29.826603
 30
0.0
 10
1.084626
 20
29.738911
 30
0.0
  0
SPLINE
  5
176
100
AcDbEntity
  8
0
 62
7
100
AcDbSpline
 70
8
 71
3
 72
8
 73
4
 74
0
 40
0
 40
0
 40
0
 40
0
 40
1
 40
1
 40
1
 40
1
 10
1.084626
 20
29.738911
 30
0.0
 10
1.137146
 20
29.732060
 30
0.0
 10
1.190586
 20
29.728862
 30
0.0
 10
1.243111
 20
29.728862
 30
0.0
  0
SPLINE
  5
177
100
AcDbEntity
  8
0
 62
7
100
AcDbSpline
 70
8
 71
3
 72
8
 73
4
 74
0
 40
0
 40
0
 40
0
 40
0
 40
1
 40
1
 40
1
 40
1
 10
1.243111
 20
29.728862
 30
0.0
 10
1.469648
 20
29.728862
 30
0.0
 10
1.687053
 20
29.790523
 30
0.0
 10
1.876592
 20
29.906074
 30
0.0
  0
SPLINE
  5
178
100
AcDbEntity
  8
0
 62
7
100
AcDbSpline
 70
8
 71
3
 72
8
 73
4
 74
0
 40
0
 40
0
 40
0
 40
0
 40
1
 40
1
 40
1
 40
1
 10
1.876592
 20
29.906074
 30
0.0
 10
1.938713
 20
29.915209
 30
0.0
 10
2.034168
 20
29.924801
 30
0.0
 10
2.164793
 20
29.924801
 30
0.0
  0
SPLINE
  5
179
100
AcDbEntity
  8
0
 62
7
100
AcDbSpline
 70
8
 71
3
 72
8
 73
4
 74
0
 40
0
 40
0
 40
0
 40
0
 40
1
 40
1
 40
1
 40
1
 10
2.164793
 20
29.924801
 30
0.0
 10
2.241521
 20
29.924801
 30
0.0
 10
2.333324
 20
29.921604
 30
0.0
 10
2.440661
 20
29.912012
 30
0.0
  0
SPLINE
  5
17a
100
AcDbEntity
  8
0
 62
7
100
AcDbSpline
 70
8
 71
3
 72
8
 73
4
 74
0
 40
0
 40
0
 40
0
 40
0
 40
1
 40
1
 40
1
 40
1
 10
2.440661
 20
29.912012
 30
0.0
 10
1.660102
 20
28.620832
 30
0.0
 10
1.988495
 20
27.830684
 30
0.0
 10
2.299984
 20
27.443833
 30
0.0
  0
SPLINE
  5
17b
100
AcDbEntity
  8
0
 62
7
100
AcDbSpline
 70
8
 71
3
 72
8
 73
4
 74
0
 40
0
 40
0
 40
0
 40
0
 40
1
 40
1
 40
1
 40
1
 10
2.299984
 20
27.443833
 30
0.0
 10
2.505056
 20
27.166139
 30
0.0
 10
2.797828
 20
26.952846
 30
0.0
 10
3.131239
 20
26.837748
 30
0.0
  0
SPLINE
  5
17c
100
AcDbEntity
  8
0
 62
7
100
AcDbSpline
 70
8
 71
3
 72
8
 73
4
 74
0
 40
0
 40
0
 40
0
 40
0
 40
1
 40
1
 40
1
 40
1
 10
3.131239
 20
26.837748
 30
0.0
 10
3.155899
 20
26.828613
 30
0.0
 10
3.181479
 20
26.820393
 30
0.0
 10
3.207058
 20
26.813543
 30
0.0
  0
SPLINE
  5
17d
100
AcDbEntity
  8
0
 62
7
100
AcDbSpline
 70
8
 71
3
 72
8
 73
4
 74
0
 40
0
 40
0
 40
0
 40
0
 40
1
 40
1
 40
1
 40
1
 10
3.207058
 20
26.813543
 30
0.0
 10
3.284243
 20
26.790706
 30
0.0
 10
3.362342
 20
26.773351
 30
0.0
 10
3.440899
 20
26.761018
 30
0.0
  0
SPLINE
  5
17e
100
AcDbEntity
  8
0
 62
7
100
AcDbSpline
 70
8
 71
3
 72
8
 73
4
 74
0
 40
0
 40
0
 40
0
 40
0
 40
1
 40
1
 40
1
 40
1
 10
3.440899
 20
26.761018
 30
0.0
 10
3.448214
 20
26.732244
 30
0.0
 10
3.455060
 20
26.703469
 30
0.0
 10
3.462369
 20
26.675152
 30
0.0
  0
SPLINE
  5
17f
100
AcDbEntity
  8
0
 62
7
100
AcDbSpline
 70
8
 71
3
 72
8
 73
4
 74
0
 40
0
 40
0
 40
0
 40
0
 40
1
 40
1
 40
1
 40
1
 10
3.462369
 20
26.675152
 30
0.0
 10
3.165951
 20
25.937075
 30
0.0
 10
3.439533
 20
25.317289
 30
0.0
 10
3.839173
 20
24.956470
 30
0.0
  0
SPLINE
  5
180
100
AcDbEntity
  8
0
 62
7
100
AcDbSpline
 70
8
 71
3
 72
8
 73
4
 74
0
 40
0
 40
0
 40
0
 40
0
 40
1
 40
1
 40
1
 40
1
 10
3.839173
 20
24.956470
 30
0.0
 10
3.840996
 20
24.955100
 30
0.0
 10
3.842827
 20
24.953273
 30
0.0
 10
3.844197
 20
24.951902
 30
0.0
  0
SPLINE
  5
181
100
AcDbEntity
  8
0
 62
7
100
AcDbSpline
 70
8
 71
3
 72
8
 73
4
 74
0
 40
0
 40
0
 40
0
 40
0
 40
1
 40
1
 40
1
 40
1
 10
3.844197
 20
24.951902
 30
0.0
 10
4.042423
 20
24.776059
 30
0.0
 10
4.282659
 20
24.655027
 30
0.0
 10
4.552132
 20
24.593823
 30
0.0
  0
SPLINE
  5
182
100
AcDbEntity
  8
0
 62
7
100
AcDbSpline
 70
8
 71
3
 72
8
 73
4
 74
0
 40
0
 40
0
 40
0
 40
0
 40
1
 40
1
 40
1
 40
1
 10
4.552132
 20
24.593823
 30
0.0
 10
4.552588
 20
24.593823
 30
0.0
 10
4.553045
 20
24.593366
 30
0.0
 10
4.553502
 20
24.592910
 30
0.0
  0
SPLINE
  5
183
100
AcDbEntity
  8
0
 62
7
100
AcDbSpline
 70
8
 71
3
 72
8
 73
4
 74
0
 40
0
 40
0
 40
0
 40
0
 40
1
 40
1
 40
1
 40
1
 10
4.553502
 20
24.592910
 30
0.0
 10
4.549387
 20
24.572356
 30
0.0
 10
4.546193
 20
24.551346
 30
0.0
 10
4.542998
 20
24.530792
 30
0.0
  0
SPLINE
  5
184
100
AcDbEntity
  8
0
 62
7
100
AcDbSpline
 70
8
 71
3
 72
8
 73
4
 74
0
 40
0
 40
0
 40
0
 40
0
 40
1
 40
1
 40
1
 40
1
 10
4.542998
 20
24.530792
 30
0.0
 10
4.416482
 20
23.879949
 30
0.0
 10
4.555788
 20
22.922640
 30
0.0
 10
5.904513
 20
22.010545
 30
0.0
  0
SPLINE
  5
185
100
AcDbEntity
  8
0
 62
7
100
AcDbSpline
 70
8
 71
3
 72
8
 73
4
 74
0
 40
0
 40
0
 40
0
 40
0
 40
1
 40
1
 40
1
 40
1
 10
5.904513
 20
22.010545
 30
0.0
 10
5.909994
 20
22.006891
 30
0.0
 10
5.915023
 20
22.003696
 30
0.0
 10
5.920041
 20
22.000041
 30
0.0
  0
SPLINE
  5
186
100
AcDbEntity
  8
0
 62
7
100
AcDbSpline
 70
8
 71
3
 72
8
 73
4
 74
0
 40
0
 40
0
 40
0
 40
0
 40
1
 40
1
 40
1
 40
1
 10
5.920041
 20
22.000041
 30
0.0
 10
5.879397
 20
21.960306
 30
0.0
 10
5.841027
 20
21.918287
 30
0.0
 10
5.805400
 20
21.874440
 30
0.0
  0
SPLINE
  5
187
100
AcDbEntity
  8
0
 62
7
100
AcDbSpline
 70
8
 71
3
 72
8
 73
4
 74
0
 40
0
 40
0
 40
0
 40
0
 40
1
 40
1
 40
1
 40
1
 10
5.805400
 20
21.874440
 30
0.0
 10
5.788050
 20
21.854344
 30
0.0
 10
5.772060
 20
21.833333
 30
0.0
 10
5.756990
 20
21.811868
 30
0.0
  0
SPLINE
  5
188
100
AcDbEntity
  8
0
 62
7
100
AcDbSpline
 70
8
 71
3
 72
8
 73
4
 74
0
 40
0
 40
0
 40
0
 40
0
 40
1
 40
1
 40
1
 40
1
 10
5.756990
 20
21.811868
 30
0.0
 10
5.539585
 20
21.514992
 30
0.0
 10
5.345016
 20
21.019436
 30
0.0
 10
5.582063
 20
20.298715
 30
0.0
  0
SPLINE
  5
189
100
AcDbEntity
  8
0
 62
7
100
AcDbSpline
 70
8
 71
3
 72
8
 73
4
 74
0
 40
0
 40
0
 40
0
 40
0
 40
1
 40
1
 40
1
 40
1
 10
5.582063
 20
20.298715
 30
0.0
 10
5.582977
 20
20.295517
 30
0.0
 10
5.583890
 20
20.292320
 30
0.0
 10
5.585260
 20
20.289122
 30
0.0
  0
SPLINE
  5
18a
100
AcDbEntity
  8
0
 62
7
100
AcDbSpline
 70
8
 71
3
 72
8
 73
4
 74
0
 40
0
 40
0
 40
0
 40
0
 40
1
 40
1
 40
1
 40
1
 10
5.585260
 20
20.289122
 30
0.0
 10
5.658794
 20
20.068523
 30
0.0
 10
5.770234
 20
19.834673
 30
0.0
 10
5.921872
 20
19.584842
 30
0.0
  0
SPLINE
  5
18b
100
AcDbEntity
  8
0
 62
7
100
AcDbSpline
 70
8
 71
3
 72
8
 73
4
 74
0
 40
0
 40
0
 40
0
 40
0
 40
1
 40
1
 40
1
 40
1
 10
5.921872
 20
19.584842
 30
0.0
 10
5.515837
 20
19.307148
 30
0.0
 10
5.171921
 20
19.007990
 30
0.0
 10
4.891939
 20
18.688278
 30
0.0
  0
SPLINE
  5
18c
100
AcDbEntity
  8
0
 62
7
100
AcDbSpline
 70
8
 71
3
 72
8
 73
4
 74
0
 40
0
 40
0
 40
0
 40
0
 40
1
 40
1
 40
1
 40
1
 10
4.891939
 20
18.688278
 30
0.0
 10
4.548933
 20
18.659503
 30
0.0
 10
4.237444
 20
18.490054
 30
0.0
 10
4.025977
 20
18.213275
 30
0.0
  0
SPLINE
  5
18d
100
AcDbEntity
  8
0
 62
7
100
AcDbSpline
 70
8
 71
3
 72
8
 73
4
 74
0
 40
0
 40
0
 40
0
 40
0
 40
1
 40
1
 40
1
 40
1
 10
4.025977
 20
18.213275
 30
0.0
 10
3.828214
 20
17.954309
 30
0.0
 10
3.742805
 20
17.634140
 30
0.0
 10
3.785735
 20
17.310775
 30
0.0
  0
SPLINE
  5
18e
100
AcDbEntity
  8
0
 62
7
100
AcDbSpline
 70
8
 71
3
 72
8
 73
4
 74
0
 40
0
 40
0
 40
0
 40
0
 40
1
 40
1
 40
1
 40
1
 10
3.785735
 20
17.310775
 30
0.0
 10
3.829123
 20
16.987865
 30
0.0
 10
3.995379
 20
16.701036
 30
0.0
 10
4.254343
 20
16.503271
 30
0.0
  0
SPLINE
  5
18f
100
AcDbEntity
  8
0
 62
7
100
AcDbSpline
 70
8
 71
3
 72
8
 73
4
 74
0
 40
0
 40
0
 40
0
 40
0
 40
1
 40
1
 40
1
 40
1
 10
4.254343
 20
16.503271
 30
0.0
 10
4.465810
 20
16.341131
 30
0.0
 10
4.728888
 20
16.252068
 30
0.0
 10
4.995161
 20
16.252068
 30
0.0
  0
SPLINE
  5
190
100
AcDbEntity
  8
0
 62
7
100
AcDbSpline
 70
8
 71
3
 72
8
 73
4
 74
0
 40
0
 40
0
 40
0
 40
0
 40
1
 40
1
 40
1
 40
1
 10
4.995161
 20
16.252068
 30
0.0
 10
5.074632
 20
16.252068
 30
0.0
 10
5.152736
 20
16.259834
 30
0.0
 10
5.229013
 20
16.274450
 30
0.0
  0
SPLINE
  5
191
100
AcDbEntity
  8
0
 62
7
100
AcDbSpline
 70
8
 71
3
 72
8
 73
4
 74
0
 40
0
 40
0
 40
0
 40
0
 40
1
 40
1
 40
1
 40
1
 10
5.229013
 20
16.274450
 30
0.0
 10
5.270114
 20
16.232429
 30
0.0
 10
5.314416
 20
16.193608
 30
0.0
 10
5.361461
 20
16.157070
 30
0.0
  0
SPLINE
  5
192
100
AcDbEntity
  8
0
 62
7
100
AcDbSpline
 70
8
 71
3
 72
8
 73
4
 74
0
 40
0
 40
0
 40
0
 40
0
 40
1
 40
1
 40
1
 40
1
 10
5.361461
 20
16.157070
 30
0.0
 10
5.573385
 20
15.995385
 30
0.0
 10
5.836463
 20
15.906324
 30
0.0
 10
6.102279
 20
15.906324
 30
0.0
  0
SPLINE
  5
193
100
AcDbEntity
  8
0
 62
7
100
AcDbSpline
 70
8
 71
3
 72
8
 73
4
 74
0
 40
0
 40
0
 40
0
 40
0
 40
1
 40
1
 40
1
 40
1
 10
6.102279
 20
15.906324
 30
0.0
 10
6.186321
 20
15.906324
 30
0.0
 10
6.268993
 20
15.915002
 30
0.0
 10
6.349372
 20
15.930987
 30
0.0
  0
SPLINE
  5
194
100
AcDbEntity
  8
0
 62
7
100
AcDbSpline
 70
8
 71
3
 72
8
 73
4
 74
0
 40
0
 40
0
 40
0
 40
0
 40
1
 40
1
 40
1
 40
1
 10
6.349372
 20
15.930987
 30
0.0
 10
6.375403
 20
15.901756
 30
0.0
 10
6.403269
 20
15.873438
 30
0.0
 10
6.432495
 20
15.846035
 30
0.0
  0
SPLINE
  5
195
100
AcDbEntity
  8
0
 62
7
100
AcDbSpline
 70
8
 71
3
 72
8
 73
4
 74
0
 40
0
 40
0
 40
0
 40
0
 40
1
 40
1
 40
1
 40
1
 10
6.432495
 20
15.846035
 30
0.0
 10
6.398240
 20
15.810866
 30
0.0
 10
6.365814
 20
15.773413
 30
0.0
 10
6.335674
 20
15.733678
 30
0.0
  0
SPLINE
  5
196
100
AcDbEntity
  8
0
 62
7
100
AcDbSpline
 70
8
 71
3
 72
8
 73
4
 74
0
 40
0
 40
0
 40
0
 40
0
 40
1
 40
1
 40
1
 40
1
 10
6.335674
 20
15.733678
 30
0.0
 10
6.137448
 20
15.474712
 30
0.0
 10
6.052045
 20
15.154085
 30
0.0
 10
6.095432
 20
14.831175
 30
0.0
  0
SPLINE
  5
197
100
AcDbEntity
  8
0
 62
7
100
AcDbSpline
 70
8
 71
3
 72
8
 73
4
 74
0
 40
0
 40
0
 40
0
 40
0
 40
1
 40
1
 40
1
 40
1
 10
6.095432
 20
14.831175
 30
0.0
 10
6.138362
 20
14.507811
 30
0.0
 10
6.304614
 20
14.220982
 30
0.0
 10
6.563582
 20
14.023216
 30
0.0
  0
SPLINE
  5
198
100
AcDbEntity
  8
0
 62
7
100
AcDbSpline
 70
8
 71
3
 72
8
 73
4
 74
0
 40
0
 40
0
 40
0
 40
0
 40
1
 40
1
 40
1
 40
1
 10
6.563582
 20
14.023216
 30
0.0
 10
6.575001
 20
14.014539
 30
0.0
 10
6.586419
 20
14.005861
 30
0.0
 10
6.597837
 20
13.997639
 30
0.0
  0
SPLINE
  5
199
100
AcDbEntity
  8
0
 62
7
100
AcDbSpline
 70
8
 71
3
 72
8
 73
4
 74
0
 40
0
 40
0
 40
0
 40
0
 40
1
 40
1
 40
1
 40
1
 10
6.597837
 20
13.997639
 30
0.0
 10
6.626606
 20
13.667880
 30
0.0
 10
6.788291
 20
13.349994
 30
0.0
 10
7.071920
 20
13.133503
 30
0.0
  0
SPLINE
  5
19a
100
AcDbEntity
  8
0
 62
7
100
AcDbSpline
 70
8
 71
3
 72
8
 73
4
 74
0
 40
0
 40
0
 40
0
 40
0
 40
1
 40
1
 40
1
 40
1
 10
7.071920
 20
13.133503
 30
0.0
 10
7.283393
 20
12.971821
 30
0.0
 10
7.546471
 20
12.882758
 30
0.0
 10
7.812743
 20
12.882758
 30
0.0
  0
SPLINE
  5
19b
100
AcDbEntity
  8
0
 62
7
100
AcDbSpline
 70
8
 71
3
 72
8
 73
4
 74
0
 40
0
 40
0
 40
0
 40
0
 40
1
 40
1
 40
1
 40
1
 10
7.812743
 20
12.882758
 30
0.0
 10
8.083587
 20
12.882758
 30
0.0
 10
8.339808
 20
12.969992
 30
0.0
 10
8.548995
 20
13.128480
 30
0.0
  0
SPLINE
  5
19c
100
AcDbEntity
  8
0
 62
7
100
AcDbSpline
 70
8
 71
3
 72
8
 73
4
 74
0
 40
0
 40
0
 40
0
 40
0
 40
1
 40
1
 40
1
 40
1
 10
8.548995
 20
13.128480
 30
0.0
 10
8.587359
 20
13.063168
 30
0.0
 10
8.629380
 20
12.999224
 30
0.0
 10
8.673682
 20
12.938021
 30
0.0
  0
SPLINE
  5
19d
100
AcDbEntity
  8
0
 62
7
100
AcDbSpline
 70
8
 71
3
 72
8
 73
4
 74
0
 40
0
 40
0
 40
0
 40
0
 40
1
 40
1
 40
1
 40
1
 10
8.673682
 20
12.938021
 30
0.0
 10
8.712052
 20
12.869968
 30
0.0
 10
8.759548
 20
12.807396
 30
0.0
 10
8.813445
 20
12.752133
 30
0.0
  0
SPLINE
  5
19e
100
AcDbEntity
  8
0
 62
7
100
AcDbSpline
 70
8
 71
3
 72
8
 73
4
 74
0
 40
0
 40
0
 40
0
 40
0
 40
1
 40
1
 40
1
 40
1
 10
8.813445
 20
12.752133
 30
0.0
 10
8.916667
 20
12.596386
 30
0.0
 10
9.067385
 20
12.475353
 30
0.0
 10
9.244597
 20
12.409127
 30
0.0
  0
SPLINE
  5
19f
100
AcDbEntity
  8
0
 62
7
100
AcDbSpline
 70
8
 71
3
 72
8
 73
4
 74
0
 40
0
 40
0
 40
0
 40
0
 40
1
 40
1
 40
1
 40
1
 10
9.244597
 20
12.409127
 30
0.0
 10
9.249621
 20
12.406386
 30
0.0
 10
9.254187
 20
12.404101
 30
0.0
 10
9.259216
 20
12.401818
 30
0.0
  0
SPLINE
  5
1a0
100
AcDbEntity
  8
0
 62
7
100
AcDbSpline
 70
8
 71
3
 72
8
 73
4
 74
0
 40
0
 40
0
 40
0
 40
0
 40
1
 40
1
 40
1
 40
1
 10
9.259216
 20
12.401818
 30
0.0
 10
9.266519
 20
12.356145
 30
0.0
 10
9.277938
 20
12.310929
 30
0.0
 10
9.293471
 20
12.266627
 30
0.0
  0
SPLINE
  5
1a1
100
AcDbEntity
  8
0
 62
7
100
AcDbSpline
 70
8
 71
3
 72
8
 73
4
 74
0
 40
0
 40
0
 40
0
 40
0
 40
1
 40
1
 40
1
 40
1
 10
9.293471
 20
12.266627
 30
0.0
 10
9.294841
 20
12.262058
 30
0.0
 10
9.438251
 20
11.843693
 30
0.0
 10
9.573442
 20
11.428979
 30
0.0
  0
SPLINE
  5
1a2
100
AcDbEntity
  8
0
 62
7
100
AcDbSpline
 70
8
 71
3
 72
8
 73
4
 74
0
 40
0
 40
0
 40
0
 40
0
 40
1
 40
1
 40
1
 40
1
 10
9.573442
 20
11.428979
 30
0.0
 10
9.738784
 20
10.921093
 30
0.0
 10
9.779428
 20
10.761237
 30
0.0
 10
9.788109
 20
10.723785
 30
0.0
  0
SPLINE
  5
1a3
100
AcDbEntity
  8
0
 62
7
100
AcDbSpline
 70
8
 71
3
 72
8
 73
4
 74
0
 40
0
 40
0
 40
0
 40
0
 40
1
 40
1
 40
1
 40
1
 10
9.788109
 20
10.723785
 30
0.0
 10
9.817185
 20
10.515194
 30
0.0
 10
9.924404
 20
10.330852
 30
0.0
 10
10.080647
 20
10.202259
 30
0.0
  0
SPLINE
  5
1a4
100
AcDbEntity
  8
0
 62
7
100
AcDbSpline
 70
8
 71
3
 72
8
 73
4
 74
0
 40
0
 40
0
 40
0
 40
0
 40
1
 40
1
 40
1
 40
1
 10
5.303911
 20
10.202259
 30
0.0
 10
4.319573
 20
10.202259
 30
0.0
 10
3.548481
 20
9.431167
 30
0.0
 10
3.548481
 20
8.446829
 30
0.0
  0
LWPOLYLINE
  5
1a5
100
AcDbEntity
  8
0
 62
7
100
AcDbPolyline
 90
2
 70
0
 10
10.080647
 20
10.202259
 30
0.0
 10
5.303911
 20
10.202259
 30
0.0
  0
SPLINE
  5
1a6
100
AcDbEntity
  8
0
 62
7
100
AcDbSpline
 70
8
 71
3
 72
8
 73
4
 74
0
 40
0
 40
0
 40
0
 40
0
 40
1
 40
1
 40
1
 40
1
 10
3.548481
 20
6.847241
 30
0.0
 10
3.548481
 20
6.039486
 30
0.0
 10
3.837730
 20
5.310540
 30
0.0
 10
4.362972
 20
4.794757
 30
0.0
  0
SPLINE
  5
1a7
100
AcDbEntity
  8
0
 62
7
100
AcDbSpline
 70
8
 71
3
 72
8
 73
4
 74
0
 40
0
 40
0
 40
0
 40
0
 40
1
 40
1
 40
1
 40
1
 10
4.362972
 20
4.794757
 30
0.0
 10
4.886831
 20
4.280262
 30
0.0
 10
5.626568
 20
3.996901
 30
0.0
 10
6.445875
 20
3.996901
 30
0.0
  0
LWPOLYLINE
  5
1a8
100
AcDbEntity
  8
0
 62
7
100
AcDbPolyline
 90
2
 70
0
 10
3.548481
 20
8.446829
 30
0.0
 10
3.548481
 20
6.847241
 30
0.0
  0
SPLINE
  5
1a9
100
AcDbEntity
  8
0
 62
7
100
AcDbSpline
 70
8
 71
3
 72
8
 73
4
 74
0
 40
0
 40
0
 40
0
 40
0
 40
1
 40
1
 40
1
 40
1
 10
10.847049
 20
1.868059
 30
0.0
 10
10.847049
 20
1.170470
 30
0.0
 10
11.201284
 20
0.566506
 30
0.0
 10
11.794590
 20
0.252411
 30
0.0
  0
SPLINE
  5
1aa
100
AcDbEntity
  8
0
 62
7
100
AcDbSpline
 70
8
 71
3
 72
8
 73
4
 74
0
 40
0
 40
0
 40
0
 40
0
 40
1
 40
1
 40
1
 40
1
 10
11.794590
 20
0.252411
 30
0.0
 10
12.082411
 20
0.100050
 30
0.0
 10
12.411758
 20
0.022798
 30
0.0
 10
12.773530
 20
0.022798
 30
0.0
  0
LWPOLYLINE
  5
1ab
100
AcDbEntity
  8
0
 62
7
100
AcDbPolyline
 90
3
 70
0
 10
6.445875
 20
3.996901
 30
0.0
 10
10.847049
 20
3.996901
 30
0.0
 10
10.847049
 20
1.868059
 30
0.0
  0
SPLINE
  5
1ac
100
AcDbEntity
  8
0
 62
7
100
AcDbSpline
 70
8
 71
3
 72
8
 73
4
 74
0
 40
0
 40
0
 40
0
 40
0
 40
1
 40
1
 40
1
 40
1
 10
32.557073
 20
0.023757
 30
0.0
 10
32.904551
 20
0.028781
 30
0.0
 10
33.221755
 20
0.105161
 30
0.0
 10
33.499886
 20
0.252393
 30
0.0
  0
SPLINE
  5
1ad
100
AcDbEntity
  8
0
 62
7
100
AcDbSpline
 70
8
 71
3
 72
8
 73
4
 74
0
 40
0
 40
0
 40
0
 40
0
 40
1
 40
1
 40
1
 40
1
 10
33.499886
 20
0.252393
 30
0.0
 10
34.093191
 20
0.566487
 30
0.0
 10
34.447426
 20
1.170451
 30
0.0
 10
34.447426
 20
1.868041
 30
0.0
  0
LWPOLYLINE
  5
1ae
100
AcDbEntity
  8
0
 62
7
100
AcDbPolyline
 90
3
 70
0
 10
12.773530
 20
0.022798
 30
0.0
 10
32.557073
 20
0.022798
 30
0.0
 10
32.557073
 20
0.023757
 30
0.0
  0
SPLINE
  5
1af
100
AcDbEntity
  8
0
 62
7
100
AcDbSpline
 70
8
 71
3
 72
8
 73
4
 74
0
 40
0
 40
0
 40
0
 40
0
 40
1
 40
1
 40
1
 40
1
 10
40.066211
 20
3.996883
 30
0.0
 10
41.043368
 20
3.996883
 30
0.0
 10
41.808795
 20
4.749152
 30
0.0
 10
41.808795
 20
5.709541
 30
0.0
  0
SPLINE
  5
1b0
100
AcDbEntity
  8
0
 62
7
100
AcDbSpline
 70
8
 71
3
 72
8
 73
4
 74
0
 40
0
 40
0
 40
0
 40
0
 40
1
 40
1
 40
1
 40
1
 10
41.808795
 20
5.709541
 30
0.0
 10
41.808795
 20
6.167745
 30
0.0
 10
41.623828
 20
6.618099
 30
0.0
 10
41.301573
 20
6.944859
 30
0.0
  0
SPLINE
  5
1b1
100
AcDbEntity
  8
0
 62
7
100
AcDbSpline
 70
8
 71
3
 72
8
 73
4
 74
0
 40
0
 40
0
 40
0
 40
0
 40
1
 40
1
 40
1
 40
1
 10
41.301573
 20
6.944859
 30
0.0
 10
38.653286
 20
9.635920
 30
0.0
 10
38.650921
 20
9.638284
 30
0.0
 10
38.649851
 20
9.639355
 30
0.0
  0
SPLINE
  5
1b2
100
AcDbEntity
  8
0
 62
7
100
AcDbSpline
 70
8
 71
3
 72
8
 73
4
 74
0
 40
0
 40
0
 40
0
 40
0
 40
1
 40
1
 40
1
 40
1
 10
38.649851
 20
9.639355
 30
0.0
 10
38.286919
 20
10.002332
 30
0.0
 10
37.807172
 20
10.202241
 30
0.0
 10
37.298968
 20
10.202241
 30
0.0
  0
LWPOLYLINE
  5
1b3
100
AcDbEntity
  8
0
 62
7
100
AcDbPolyline
 90
3
 70
0
 10
34.447426
 20
1.868041
 30
0.0
 10
34.447426
 20
3.996883
 30
0.0
 10
40.066211
 20
3.996883
 30
0.0
  0
SPLINE
  5
1b4
100
AcDbEntity
  8
0
 62
7
100
AcDbSpline
 70
8
 71
3
 72
8
 73
4
 74
0
 40
0
 40
0
 40
0
 40
0
 40
1
 40
1
 40
1
 40
1
 10
35.165463
 20
10.202241
 30
0.0
 10
35.288835
 20
10.326044
 30
0.0
 10
35.372810
 20
10.488153
 30
0.0
 10
35.397983
 20
10.668502
 30
0.0
  0
SPLINE
  5
1b5
100
AcDbEntity
  8
0
 62
7
100
AcDbSpline
 70
8
 71
3
 72
8
 73
4
 74
0
 40
0
 40
0
 40
0
 40
0
 40
1
 40
1
 40
1
 40
1
 10
35.397983
 20
10.668502
 30
0.0
 10
35.406664
 20
10.706411
 30
0.0
 10
35.447308
 20
10.866267
 30
0.0
 10
35.612650
 20
11.374153
 30
0.0
  0
SPLINE
  5
1b6
100
AcDbEntity
  8
0
 62
7
100
AcDbSpline
 70
8
 71
3
 72
8
 73
4
 74
0
 40
0
 40
0
 40
0
 40
0
 40
1
 40
1
 40
1
 40
1
 10
35.612650
 20
11.374153
 30
0.0
 10
35.693493
 20
11.622615
 30
0.0
 10
35.777524
 20
11.872906
 30
0.0
 10
35.832336
 20
12.034131
 30
0.0
  0
SPLINE
  5
1b7
100
AcDbEntity
  8
0
 62
7
100
AcDbSpline
 70
8
 71
3
 72
8
 73
4
 74
0
 40
0
 40
0
 40
0
 40
0
 40
1
 40
1
 40
1
 40
1
 10
35.832336
 20
12.034131
 30
0.0
 10
35.883946
 20
11.995767
 30
0.0
 10
35.939209
 20
11.961512
 30
0.0
 10
35.997215
 20
11.931366
 30
0.0
  0
SPLINE
  5
1b8
100
AcDbEntity
  8
0
 62
7
100
AcDbSpline
 70
8
 71
3
 72
8
 73
4
 74
0
 40
0
 40
0
 40
0
 40
0
 40
1
 40
1
 40
1
 40
1
 10
35.997215
 20
11.931366
 30
0.0
 10
36.171233
 20
11.840477
 30
0.0
 10
36.367173
 20
11.792521
 30
0.0
 10
36.563107
 20
11.792521
 30
0.0
  0
SPLINE
  5
1b9
100
AcDbEntity
  8
0
 62
7
100
AcDbSpline
 70
8
 71
3
 72
8
 73
4
 74
0
 40
0
 40
0
 40
0
 40
0
 40
1
 40
1
 40
1
 40
1
 10
36.563107
 20
11.792521
 30
0.0
 10
37.022119
 20
11.792521
 30
0.0
 10
37.439121
 20
12.045549
 30
0.0
 10
37.651497
 20
12.452954
 30
0.0
  0
SPLINE
  5
1ba
100
AcDbEntity
  8
0
 62
7
100
AcDbSpline
 70
8
 71
3
 72
8
 73
4
 74
0
 40
0
 40
0
 40
0
 40
0
 40
1
 40
1
 40
1
 40
1
 10
37.651497
 20
12.452954
 30
0.0
 10
37.802678
 20
12.743437
 30
0.0
 10
37.831910
 20
13.075479
 30
0.0
 10
37.733254
 20
13.387885
 30
0.0
  0
SPLINE
  5
1bb
100
AcDbEntity
  8
0
 62
7
100
AcDbSpline
 70
8
 71
3
 72
8
 73
4
 74
0
 40
0
 40
0
 40
0
 40
0
 40
1
 40
1
 40
1
 40
1
 10
37.733254
 20
13.387885
 30
0.0
 10
37.725036
 20
13.413919
 30
0.0
 10
37.716355
 20
13.439039
 30
0.0
 10
37.706308
 20
13.464159
 30
0.0
  0
SPLINE
  5
1bc
100
AcDbEntity
  8
0
 62
7
100
AcDbSpline
 70
8
 71
3
 72
8
 73
4
 74
0
 40
0
 40
0
 40
0
 40
0
 40
1
 40
1
 40
1
 40
1
 10
37.706308
 20
13.464159
 30
0.0
 10
37.742387
 20
13.513944
 30
0.0
 10
37.775270
 20
13.566466
 30
0.0
 10
37.804049
 20
13.621732
 30
0.0
  0
SPLINE
  5
1bd
100
AcDbEntity
  8
0
 62
7
100
AcDbSpline
 70
8
 71
3
 72
8
 73
4
 74
0
 40
0
 40
0
 40
0
 40
0
 40
1
 40
1
 40
1
 40
1
 10
37.804049
 20
13.621732
 30
0.0
 10
37.975781
 20
13.951491
 30
0.0
 10
37.982170
 20
14.324185
 30
0.0
 10
37.853832
 20
14.644812
 30
0.0
  0
SPLINE
  5
1be
100
AcDbEntity
  8
0
 62
7
100
AcDbSpline
 70
8
 71
3
 72
8
 73
4
 74
0
 40
0
 40
0
 40
0
 40
0
 40
1
 40
1
 40
1
 40
1
 10
37.853832
 20
14.644812
 30
0.0
 10
37.883520
 20
14.681808
 30
0.0
 10
37.910923
 20
14.720171
 30
0.0
 10
37.936498
 20
14.760821
 30
0.0
  0
SPLINE
  5
1bf
100
AcDbEntity
  8
0
 62
7
100
AcDbSpline
 70
8
 71
3
 72
8
 73
4
 74
0
 40
0
 40
0
 40
0
 40
0
 40
1
 40
1
 40
1
 40
1
 10
37.936498
 20
14.760821
 30
0.0
 10
37.980799
 20
14.729764
 30
0.0
 10
38.027387
 20
14.701447
 30
0.0
 10
38.076260
 20
14.676324
 30
0.0
  0
SPLINE
  5
1c0
100
AcDbEntity
  8
0
 62
7
100
AcDbSpline
 70
8
 71
3
 72
8
 73
4
 74
0
 40
0
 40
0
 40
0
 40
0
 40
1
 40
1
 40
1
 40
1
 10
38.076260
 20
14.676324
 30
0.0
 10
38.250278
 20
14.585435
 30
0.0
 10
38.446212
 20
14.537478
 30
0.0
 10
38.642152
 20
14.537478
 30
0.0
  0
SPLINE
  5
1c1
100
AcDbEntity
  8
0
 62
7
100
AcDbSpline
 70
8
 71
3
 72
8
 73
4
 74
0
 40
0
 40
0
 40
0
 40
0
 40
1
 40
1
 40
1
 40
1
 10
38.642152
 20
14.537478
 30
0.0
 10
39.101621
 20
14.537478
 30
0.0
 10
39.518623
 20
14.790507
 30
0.0
 10
39.730542
 20
15.197457
 30
0.0
  0
SPLINE
  5
1c2
100
AcDbEntity
  8
0
 62
7
100
AcDbSpline
 70
8
 71
3
 72
8
 73
4
 74
0
 40
0
 40
0
 40
0
 40
0
 40
1
 40
1
 40
1
 40
1
 10
39.730542
 20
15.197457
 30
0.0
 10
39.737851
 20
15.211615
 30
0.0
 10
39.744704
 20
15.225774
 30
0.0
 10
39.751550
 20
15.240389
 30
0.0
  0
SPLINE
  5
1c3
100
AcDbEntity
  8
0
 62
7
100
AcDbSpline
 70
8
 71
3
 72
8
 73
4
 74
0
 40
0
 40
0
 40
0
 40
0
 40
1
 40
1
 40
1
 40
1
 10
39.751550
 20
15.240389
 30
0.0
 10
40.084052
 20
15.325798
 30
0.0
 10
40.369053
 20
15.548226
 30
0.0
 10
40.532109
 20
15.861544
 30
0.0
  0
SPLINE
  5
1c4
100
AcDbEntity
  8
0
 62
7
100
AcDbSpline
 70
8
 71
3
 72
8
 73
4
 74
0
 40
0
 40
0
 40
0
 40
0
 40
1
 40
1
 40
1
 40
1
 10
40.532109
 20
15.861544
 30
0.0
 10
40.683290
 20
16.152028
 30
0.0
 10
40.712516
 20
16.484527
 30
0.0
 10
40.613866
 20
16.796933
 30
0.0
  0
SPLINE
  5
1c5
100
AcDbEntity
  8
0
 62
7
100
AcDbSpline
 70
8
 71
3
 72
8
 73
4
 74
0
 40
0
 40
0
 40
0
 40
0
 40
1
 40
1
 40
1
 40
1
 10
40.613866
 20
16.796933
 30
0.0
 10
40.515662
 20
17.109336
 30
0.0
 10
40.301457
 20
17.364650
 30
0.0
 10
40.010519
 20
17.516286
 30
0.0
  0
SPLINE
  5
1c6
100
AcDbEntity
  8
0
 62
7
100
AcDbSpline
 70
8
 71
3
 72
8
 73
4
 74
0
 40
0
 40
0
 40
0
 40
0
 40
1
 40
1
 40
1
 40
1
 10
40.010519
 20
17.516286
 30
0.0
 10
39.836507
 20
17.606718
 30
0.0
 10
39.641025
 20
17.654674
 30
0.0
 10
39.445542
 20
17.654674
 30
0.0
  0
SPLINE
  5
1c7
100
AcDbEntity
  8
0
 62
7
100
AcDbSpline
 70
8
 71
3
 72
8
 73
4
 74
0
 40
0
 40
0
 40
0
 40
0
 40
1
 40
1
 40
1
 40
1
 10
39.445542
 20
17.654674
 30
0.0
 10
39.364699
 20
17.654674
 30
0.0
 10
39.283400
 20
17.646454
 30
0.0
 10
39.203929
 20
17.630469
 30
0.0
  0
SPLINE
  5
1c8
100
AcDbEntity
  8
0
 62
7
100
AcDbSpline
 70
8
 71
3
 72
8
 73
4
 74
0
 40
0
 40
0
 40
0
 40
0
 40
1
 40
1
 40
1
 40
1
 10
39.203929
 20
17.630469
 30
0.0
 10
39.101621
 20
17.651020
 30
0.0
 10
38.908882
 20
17.702631
 30
0.0
 10
38.637129
 20
17.830972
 30
0.0
  0
SPLINE
  5
1c9
100
AcDbEntity
  8
0
 62
7
100
AcDbSpline
 70
8
 71
3
 72
8
 73
4
 74
0
 40
0
 40
0
 40
0
 40
0
 40
1
 40
1
 40
1
 40
1
 10
38.637129
 20
17.830972
 30
0.0
 10
38.870518
 20
18.016862
 30
0.0
 10
39.067824
 20
18.205950
 30
0.0
 10
39.225851
 20
18.396863
 30
0.0
  0
SPLINE
  5
1ca
100
AcDbEntity
  8
0
 62
7
100
AcDbSpline
 70
8
 71
3
 72
8
 73
4
 74
0
 40
0
 40
0
 40
0
 40
0
 40
1
 40
1
 40
1
 40
1
 10
39.225851
 20
18.396863
 30
0.0
 10
39.842897
 20
19.142250
 30
0.0
 10
39.758408
 20
19.797659
 30
0.0
 10
39.643311
 20
20.137469
 30
0.0
  0
SPLINE
  5
1cb
100
AcDbEntity
  8
0
 62
7
100
AcDbSpline
 70
8
 71
3
 72
8
 73
4
 74
0
 40
0
 40
0
 40
0
 40
0
 40
1
 40
1
 40
1
 40
1
 10
39.643311
 20
20.137469
 30
0.0
 10
39.544655
 20
20.472254
 30
0.0
 10
39.340491
 20
20.776439
 30
0.0
 10
39.063715
 20
21.001150
 30
0.0
  0
SPLINE
  5
1cc
100
AcDbEntity
  8
0
 62
7
100
AcDbSpline
 70
8
 71
3
 72
8
 73
4
 74
0
 40
0
 40
0
 40
0
 40
0
 40
1
 40
1
 40
1
 40
1
 10
39.063715
 20
21.001150
 30
0.0
 10
39.043616
 20
21.017592
 30
0.0
 10
39.023065
 20
21.033576
 30
0.0
 10
39.002057
 20
21.048649
 30
0.0
  0
SPLINE
  5
1cd
100
AcDbEntity
  8
0
 62
7
100
AcDbSpline
 70
8
 71
3
 72
8
 73
4
 74
0
 40
0
 40
0
 40
0
 40
0
 40
1
 40
1
 40
1
 40
1
 10
39.002057
 20
21.048649
 30
0.0
 10
38.916648
 20
21.111678
 30
0.0
 10
38.826668
 20
21.166944
 30
0.0
 10
38.732584
 20
21.213986
 30
0.0
  0
SPLINE
  5
1ce
100
AcDbEntity
  8
0
 62
7
100
AcDbSpline
 70
8
 71
3
 72
8
 73
4
 74
0
 40
0
 40
0
 40
0
 40
0
 40
1
 40
1
 40
1
 40
1
 10
38.732584
 20
21.213986
 30
0.0
 10
38.912082
 20
21.393482
 30
0.0
 10
39.043159
 20
21.588507
 30
0.0
 10
39.126287
 20
21.799060
 30
0.0
  0
SPLINE
  5
1cf
100
AcDbEntity
  8
0
 62
7
100
AcDbSpline
 70
8
 71
3
 72
8
 73
4
 74
0
 40
0
 40
0
 40
0
 40
0
 40
1
 40
1
 40
1
 40
1
 10
39.126287
 20
21.799060
 30
0.0
 10
39.178355
 20
21.931056
 30
0.0
 10
39.209873
 20
22.068076
 30
0.0
 10
39.221291
 20
22.206467
 30
0.0
  0
SPLINE
  5
1d0
100
AcDbEntity
  8
0
 62
7
100
AcDbSpline
 70
8
 71
3
 72
8
 73
4
 74
0
 40
0
 40
0
 40
0
 40
0
 40
1
 40
1
 40
1
 40
1
 10
39.221291
 20
22.206467
 30
0.0
 10
39.313552
 20
22.195960
 30
0.0
 10
39.407179
 20
22.190022
 30
0.0
 10
39.501720
 20
22.190022
 30
0.0
  0
SPLINE
  5
1d1
100
AcDbEntity
  8
0
 62
7
100
AcDbSpline
 70
8
 71
3
 72
8
 73
4
 74
0
 40
0
 40
0
 40
0
 40
0
 40
1
 40
1
 40
1
 40
1
 10
39.501720
 20
22.190022
 30
0.0
 10
39.895428
 20
22.190022
 30
0.0
 10
40.257156
 20
22.287763
 30
0.0
 10
40.577326
 20
22.480049
 30
0.0
  0
SPLINE
  5
1d2
100
AcDbEntity
  8
0
 62
7
100
AcDbSpline
 70
8
 71
3
 72
8
 73
4
 74
0
 40
0
 40
0
 40
0
 40
0
 40
1
 40
1
 40
1
 40
1
 10
40.577326
 20
22.480049
 30
0.0
 10
40.816196
 20
22.623460
 30
0.0
 10
41.018525
 20
22.813920
 30
0.0
 10
41.178381
 20
23.046395
 30
0.0
  0
SPLINE
  5
1d3
100
AcDbEntity
  8
0
 62
7
100
AcDbSpline
 70
8
 71
3
 72
8
 73
4
 74
0
 40
0
 40
0
 40
0
 40
0
 40
1
 40
1
 40
1
 40
1
 10
41.178381
 20
23.046395
 30
0.0
 10
41.506323
 20
23.484402
 30
0.0
 10
41.886773
 20
24.385076
 30
0.0
 10
41.140023
 20
25.792724
 30
0.0
  0
SPLINE
  5
1d4
100
AcDbEntity
  8
0
 62
7
100
AcDbSpline
 70
8
 71
3
 72
8
 73
4
 74
0
 40
0
 40
0
 40
0
 40
0
 40
1
 40
1
 40
1
 40
1
 10
41.140023
 20
25.792724
 30
0.0
 10
41.178838
 20
25.885899
 30
0.0
 10
41.215836
 20
25.981354
 30
0.0
 10
41.250091
 20
26.078639
 30
0.0
  0
SPLINE
  5
1d5
100
AcDbEntity
  8
0
 62
7
100
AcDbSpline
 70
8
 71
3
 72
8
 73
4
 74
0
 40
0
 40
0
 40
0
 40
0
 40
1
 40
1
 40
1
 40
1
 10
41.250091
 20
26.078639
 30
0.0
 10
41.261509
 20
26.084120
 30
0.0
 10
41.272928
 20
26.090057
 30
0.0
 10
41.283889
 20
26.096452
 30
0.0
  0
SPLINE
  5
1d6
100
AcDbEntity
  8
0
 62
7
100
AcDbSpline
 70
8
 71
3
 72
8
 73
4
 74
0
 40
0
 40
0
 40
0
 40
0
 40
1
 40
1
 40
1
 40
1
 10
41.283889
 20
26.096452
 30
0.0
 10
41.611362
 20
26.269552
 30
0.0
 10
42.005528
 20
26.632655
 30
0.0
 10
42.110121
 20
27.387177
 30
0.0
  0
SPLINE
  5
1d7
100
AcDbEntity
  8
0
 62
7
100
AcDbSpline
 70
8
 71
3
 72
8
 73
4
 74
0
 40
0
 40
0
 40
0
 40
0
 40
1
 40
1
 40
1
 40
1
 10
42.110121
 20
27.387177
 30
0.0
 10
42.110578
 20
27.390374
 30
0.0
 10
42.111034
 20
27.393114
 30
0.0
 10
42.111491
 20
27.395855
 30
0.0
  0
SPLINE
  5
1d8
100
AcDbEntity
  8
0
 62
7
100
AcDbSpline
 70
8
 71
3
 72
8
 73
4
 74
0
 40
0
 40
0
 40
0
 40
0
 40
1
 40
1
 40
1
 40
1
 10
42.111491
 20
27.395855
 30
0.0
 10
42.144375
 20
27.637922
 30
0.0
 10
42.145746
 20
27.910133
 30
0.0
 10
42.116509
 20
28.217972
 30
0.0
  0
SPLINE
  5
1d9
100
AcDbEntity
  8
0
 62
7
100
AcDbSpline
 70
8
 71
3
 72
8
 73
4
 74
0
 40
0
 40
0
 40
0
 40
0
 40
1
 40
1
 40
1
 40
1
 10
42.116509
 20
28.217972
 30
0.0
 10
42.621657
 20
28.291506
 30
0.0
 10
43.078846
 20
28.414367
 30
0.0
 10
43.483962
 20
28.586098
 30
0.0
  0
SPLINE
  5
1da
100
AcDbEntity
  8
0
 62
7
100
AcDbSpline
 70
8
 71
3
 72
8
 73
4
 74
0
 40
0
 40
0
 40
0
 40
0
 40
1
 40
1
 40
1
 40
1
 10
43.483962
 20
28.586098
 30
0.0
 10
43.624639
 20
28.531290
 30
0.0
 10
43.776734
 20
28.501601
 30
0.0
 10
43.934305
 20
28.501601
 30
0.0
  0
SPLINE
  5
1db
100
AcDbEntity
  8
0
 62
7
100
AcDbSpline
 70
8
 71
3
 72
8
 73
4
 74
0
 40
0
 40
0
 40
0
 40
0
 40
1
 40
1
 40
1
 40
1
 10
43.934305
 20
28.501601
 30
0.0
 10
44.029308
 20
28.501601
 30
0.0
 10
44.124758
 20
28.513019
 30
0.0
 10
44.217479
 20
28.534944
 30
0.0
  0
SPLINE
  5
1dc
100
AcDbEntity
  8
0
 62
7
100
AcDbSpline
 70
8
 71
3
 72
8
 73
4
 74
0
 40
0
 40
0
 40
0
 40
0
 40
1
 40
1
 40
1
 40
1
 10
44.217479
 20
28.534944
 30
0.0
 10
44.310196
 20
28.556867
 30
0.0
 10
44.400172
 20
28.589750
 30
0.0
 10
44.485586
 20
28.632683
 30
0.0
  0
SPLINE
  5
1dd
100
AcDbEntity
  8
0
 62
7
100
AcDbSpline
 70
8
 71
3
 72
8
 73
4
 74
0
 40
0
 40
0
 40
0
 40
0
 40
1
 40
1
 40
1
 40
1
 10
44.485586
 20
28.632683
 30
0.0
 10
45.091212
 20
28.936869
 30
0.0
 10
45.336473
 20
29.677230
 30
0.0
 10
45.032294
 20
30.282857
 30
0.0
  0
LWPOLYLINE
  5
1de
100
AcDbEntity
  8
0
 62
7
100
AcDbPolyline
 90
2
 70
0
 10
37.298968
 20
10.202241
 30
0.0
 10
35.165463
 20
10.202241
 30
0.0
  0
LWPOLYLINE
  5
1df
100
AcDbEntity
  8
0
 62
7
100
AcDbPolyline
 90
1
 70
1
 10
45.032294
 20
30.282857
 30
0.0
  0
ENDSEC
  0
SECTION
  2
OBJECTS
  0
DICTIONARY
  5
C
330
0
100
AcDbDictionary
  3
ACAD_GROUP
350
D
  3
ACAD_MLINESTYLE
350
17
  0
DICTIONARY
  5
D
330
C
100
AcDbDictionary
  0
DICTIONARY
  5
1A
330
C
100
AcDbDictionary
  0
DICTIONARY
  5
17
330
C
100
AcDbDictionary
  3
STANDARD
350
18
  0
DICTIONARY
  5
19
330
C
100
AcDbDictionary
  0
ENDSEC
  0
EOF
